<svg id="Layer_1" data-name="Layer 1" xmlns="http://www.w3.org/2000/svg" viewBox="0 0 500 500"><defs><style>.cls-1,.cls-2{fill:#fff;}.cls-1{opacity:0.19;}</style></defs><circle class="cls-1" cx="250" cy="250" r="167.19"/><path class="cls-2" d="M250,50C139.54,50,50,139.54,50,250s89.54,200,200,200,200-89.53,200-200S360.47,50,250,50Zm0,385.49C147.55,435.49,64.51,352.44,64.51,250A185.48,185.48,0,0,1,250,64.51c102.44,0,185.49,83,185.49,185.49S352.44,435.49,250,435.49Z"/><path class="cls-2" d="M250,280.94h0A30.94,30.94,0,1,1,280.86,250,31,31,0,0,1,250,280.94Zm0-54.88A23.94,23.94,0,1,0,273.86,250,24,24,0,0,0,250,226.06Z"/><path class="cls-2" d="M339,256c.41-4.56,1.25-7.5,1-12,17-9,25.59-15.27,25.14-17.56a116.28,116.28,0,0,0-15.76-39.08,2.55,2.55,0,0,0-.76-.87l0-.09-1.06-1.66a3.44,3.44,0,0,0-2.87-1.44c-.73,0-6.63,1.26-26.66,7.7a60.3,60.3,0,0,0-9-9c8-23.83,9-27.82,6.73-29.32-12.41-8.42-42.72-17.77-43-17.77-2,0-5.14,4.36-16.78,26.09-2.46-.19-9.55-.19-12,0-11.68-21.73-14.76-26.09-16.84-26.09-.19,0-30.5,9.35-42.94,17.77C182,154.18,183,159.17,191,183c-4.06,3.45-4.59,4.85-8,9-13.61-4.38-21.82-7.05-27.68-8.7-1.6-.44-2.52.93-2.87,1.44s-14.77,27.79-17.61,41.7c-.45,2.29,3,5.61,26.16,18.56-.26,4.5.58,5.44,1,10-23.29,12.31-27.64,15.18-27.16,17.73l.09.48a2.78,2.78,0,0,0,.07.92,116.11,116.11,0,0,0,16.2,39.5,3.8,3.8,0,0,0,3.42,1.63c4.21,0,24.28-5.57,30.38-7.26,3.22,3.7,3.2,3.87,7,7-8.43,25.91-9.34,31.2-7.14,32.67a2.85,2.85,0,0,0,.57.48A116.06,116.06,0,0,0,226.14,365a2.93,2.93,0,0,0,1.41,0,3.66,3.66,0,0,0,1.46-.76,1.67,1.67,0,0,0,.39-.35c.12-.13.32-.36.41-.48,2.68-3.19,12.35-21.07,15.19-26.4,2.1.16,7.92.13,10,0,2.83,5.3,12.52,23.21,15.2,26.43.16.19.29.35.45.51a2.35,2.35,0,0,0,.28.25,3.21,3.21,0,0,0,1.54.8,2.84,2.84,0,0,0,.76.1,3.17,3.17,0,0,0,.61-.07,115.37,115.37,0,0,0,40.64-16.84,2.48,2.48,0,0,0,.64-.51c2.23-1.5,1.3-5.83-7.12-31.67,3.79-3.13,5.74-4.3,9-8,6.06,1.69,24.15,7.26,28.36,7.26a3.79,3.79,0,0,0,3.42-1.63c7.81-12.12,16.36-40.9,16.36-40.9C365.65,270.18,363,266,339,256Zm5,50c-4-.51-22.82-5.23-29.84-7.21a2.83,2.83,0,0,0-2.93.9A78.47,78.47,0,0,1,299.55,311a2.81,2.81,0,0,0-1,3.13c3.35,10.21,7.64,24.64,8.41,27.89a90.42,90.42,0,0,1-31,13c-2.4-3.48-11.92-19.33-15.4-25.9a2.8,2.8,0,0,0-2.52-1.53h-.26c-2.36.22-4.78.32-7.24.32h-.32l-.29,0-.28,0h-.29c-2.46,0-4.88-.1-7.24-.32a2.91,2.91,0,0,0-2.78,1.53c-3.44,6.48-11.83,22.14-14.38,25.9a95.55,95.55,0,0,1-32-13c.73-3.22,5-17.52,8.39-27.89a2.81,2.81,0,0,0-1-3.13,78.47,78.47,0,0,1-11.68-11.29,2.91,2.91,0,0,0-2.93-.9c-7,1.95-23.74,6.7-27.82,7.21-6.26-10-11.45-20.39-14-32,0-.13,14.6-7.94,25.2-13.52a2.9,2.9,0,0,0,1.5-2.84,81.18,81.18,0,0,1-.29-15.25,2.84,2.84,0,0,0-1.44-2.71c-7.62-4.25-21.29-13.57-24-15.68,2.49-11.39,14-31,14-31,2.74.64,14.53,4.15,25.13,7.56a2.82,2.82,0,0,0,3.12-.92,79.07,79.07,0,0,1,12.22-12.44,2.88,2.88,0,0,0,.93-3.13c-2.62-7.78-7.54-21.62-8.4-25.07a103.43,103.43,0,0,1,34-14s8,15,12.49,23.44a2.84,2.84,0,0,0,2.81,1.5,76,76,0,0,1,8.07-.42h1.24a76,76,0,0,1,8.07.42,2.84,2.84,0,0,0,2.81-1.5C265.35,161.23,274,145,274,145c12,2.65,23.69,6.3,34,13-.87,3.45-5.8,18.29-8.42,26.07a2.93,2.93,0,0,0,.93,3.13,79.07,79.07,0,0,1,12.22,12.44,2.84,2.84,0,0,0,3.12.92C326.48,197.15,342,192,342,192c3.62,3.73,11.51,21.61,14,33-2.68,2.11-17.37,10.43-25,14.68a2.84,2.84,0,0,0-1.44,2.71,81.18,81.18,0,0,1-.29,15.25,2.9,2.9,0,0,0,1.5,2.84c10.6,5.55,22.92,10,25.22,11.52C356,272.16,350.28,296,344,306Z"/></svg>