<svg id="Layer_1" data-name="Layer 1" xmlns="http://www.w3.org/2000/svg" viewBox="0 0 500 500"><defs><style>.cls-1,.cls-2{fill:#2d98d4;}.cls-1{opacity:0.2;}</style></defs><path class="cls-1" d="M90,50H450a0,0,0,0,1,0,0V410a40,40,0,0,1-40,40H50a0,0,0,0,1,0,0V90A40,40,0,0,1,90,50Z"/><path class="cls-2" d="M250,203h0a47,47,0,1,0,46.89,47A47,47,0,0,0,250,203Zm0,79.41A32.44,32.44,0,1,1,282.34,250,32.5,32.5,0,0,1,250,282.42Z"/><path class="cls-2" d="M359.41,258.13a109.88,109.88,0,0,0,.26-16.11c27.39-15.35,27-17.16,26.48-19.88a137.66,137.66,0,0,0-18.63-46.21,3,3,0,0,0-.91-1l0-.11-1.24-2a4.06,4.06,0,0,0-3.4-1.7c-.86,0-3.5,0-27.19,7.62a113.09,113.09,0,0,0-13.28-13.51c9.47-28.17,8.9-28.55,6.26-30.32a136.6,136.6,0,0,0-48.21-20.6,1.76,1.76,0,0,0-.64-.08l-.11,0L277.7,114a2.31,2.31,0,0,0-.75-.08c-2.38,0-3.74,0-17.51,25.69-2.9-.22-5.81-.34-8.64-.34h-1.62c-2.83,0-5.73.12-8.64.34-13.8-25.69-15.09-25.69-17.54-25.69a2.53,2.53,0,0,0-.75.08l-1.06.23-.07,0a3,3,0,0,0-.64.08,137.1,137.1,0,0,0-48.25,20.6c-2.64,1.77-3.17,2.15,6.3,30.32a107.33,107.33,0,0,0-13.28,13.51c-23.73-7.62-26.33-7.62-27.2-7.62a3.93,3.93,0,0,0-3.39,1.7l-1.25,2-.11.18a2.82,2.82,0,0,0-.79.83,138,138,0,0,0-18.68,46.29c-.52,2.72-.9,4.56,26.49,19.88a108.5,108.5,0,0,0,.26,16.11c-27.54,14.56-27.31,15.73-26.75,18.74l.12.57a3.54,3.54,0,0,0,.07,1.09,137,137,0,0,0,19.17,46.7,4.44,4.44,0,0,0,4,1.93c5,0,22.86-4.79,30.07-6.79a105.8,105.8,0,0,0,12.48,12.11c-10,30.63-9.39,31.27-6.79,33a3.27,3.27,0,0,0,.68.57,137.6,137.6,0,0,0,48.13,20,3.64,3.64,0,0,0,1.67,0,4.41,4.41,0,0,0,1.73-.91,1.49,1.49,0,0,0,.45-.41,6.21,6.21,0,0,0,.49-.57c3.17-3.77,12.23-20.63,15.58-26.93,2.49.19,5,.26,7.51.26h1.55c2.52,0,5-.07,7.5-.22,3.36,6.26,12.45,23.12,15.62,26.93.19.23.34.41.53.6s.22.19.34.3a3.72,3.72,0,0,0,1.81,1,4,4,0,0,0,.9.11,5.85,5.85,0,0,0,.72-.07,137,137,0,0,0,48.06-19.92,2.79,2.79,0,0,0,.75-.61c2.64-1.77,3.17-2.45-6.79-33a109.42,109.42,0,0,0,12.53-12.11c7.16,2,25.05,6.79,30,6.79a4.45,4.45,0,0,0,4-1.93A137.62,137.62,0,0,0,386,278.57a3.27,3.27,0,0,0,.08-1.09l.11-.61C386.76,273.86,387,272.69,359.41,258.13Zm-6.68,56.05c-4.75-.6-18.56-4.15-26.86-6.49a3.37,3.37,0,0,0-3.47,1.06,92.29,92.29,0,0,1-13.81,13.35,3.33,3.33,0,0,0-1.13,3.7c4,12.07,7,22.29,7.92,26.14a119.88,119.88,0,0,1-38.92,16.22c-2.83-4.11-9.81-16.86-13.92-24.63a3.33,3.33,0,0,0-3-1.81h-.31c-2.79.26-5.65.38-8.56.38h-.38l-.34,0-.33,0h-.35c-2.9,0-5.77-.12-8.56-.38a3.41,3.41,0,0,0-3.28,1.81c-4.07,7.66-10.9,20.18-13.92,24.63a120.15,120.15,0,0,1-38.93-16.22c.87-3.81,3.92-13.88,7.92-26.14a3.31,3.31,0,0,0-1.13-3.7,92.7,92.7,0,0,1-13.8-13.35,3.45,3.45,0,0,0-3.48-1.06c-8.29,2.3-22,5.89-26.85,6.49a121.31,121.31,0,0,1-15.66-38.44,2,2,0,0,0,0-.49c2.72-1.88,10.3-6.26,22.82-12.86a3.41,3.41,0,0,0,1.77-3.36,97.25,97.25,0,0,1-.34-18,3.36,3.36,0,0,0-1.69-3.21c-9-5-19.39-11.2-22.56-13.69a120.18,120.18,0,0,1,15.43-38,3.9,3.9,0,0,0,.79-.83l.53-.83c3.24.76,11.2,3.06,23.72,7.1a3.36,3.36,0,0,0,3.7-1.1,93.58,93.58,0,0,1,14.45-14.71,3.39,3.39,0,0,0,1.09-3.7c-3.09-9.2-6.37-19.46-7.39-23.53a119.94,119.94,0,0,1,39.72-16.68h.3c2.12,3.1,7.06,11.73,12.41,21.73a3.36,3.36,0,0,0,3.32,1.77,90.92,90.92,0,0,1,9.55-.49h1.47a90.6,90.6,0,0,1,9.54.49,3.35,3.35,0,0,0,3.32-1.77c4.57-8.53,10.11-18.37,12.41-21.73h.3A120,120,0,0,1,316,148.51c-1,4.07-4.3,14.33-7.4,23.53a3.46,3.46,0,0,0,1.1,3.7,93.52,93.52,0,0,1,14.44,14.71,3.38,3.38,0,0,0,3.7,1.1c12.56-4,20.52-6.38,23.73-7.1l.53.83a2.84,2.84,0,0,0,.75.8,119.5,119.5,0,0,1,15.47,38c-3.17,2.49-13.55,8.68-22.56,13.69a3.38,3.38,0,0,0-1.7,3.21,96.39,96.39,0,0,1-.34,18,3.42,3.42,0,0,0,1.78,3.36c12.52,6.56,20.1,11,22.82,12.83a2.32,2.32,0,0,0,0,.52A120.72,120.72,0,0,1,352.73,314.18Z"/><path class="cls-2" d="M250,203h0a47,47,0,1,0,46.89,47A47,47,0,0,0,250,203Zm0,79.41A32.44,32.44,0,1,1,282.34,250,32.5,32.5,0,0,1,250,282.42Z"/><path class="cls-2" d="M250,203h0a47,47,0,1,0,46.89,47A47,47,0,0,0,250,203Zm0,79.41A32.44,32.44,0,1,1,282.34,250,32.5,32.5,0,0,1,250,282.42Z"/></svg>