<svg id="Layer_1" data-name="Layer 1" xmlns="http://www.w3.org/2000/svg" viewBox="0 0 500 500"><defs><style>.cls-1,.cls-2{fill:#a8a8a8;}.cls-1{opacity:0.19;}</style></defs><circle class="cls-1" cx="250" cy="250" r="167.19"/><path class="cls-2" d="M250,50C139.54,50,50,139.54,50,250s89.54,200,200,200,200-89.53,200-200S360.47,50,250,50Zm0,385.49C147.55,435.49,64.51,352.44,64.51,250A185.48,185.48,0,0,1,250,64.51c102.44,0,185.49,83,185.49,185.49S352.44,435.49,250,435.49Z"/><path class="cls-2" d="M363.41,271.08l-43.86,22.86v-7.4l47.57-24.74a4,4,0,0,0-3.67-7.13l0,0-43.86,22.86v-7.91l47.57-24.78a4,4,0,0,0-3.71-7.1L319.55,260.6v-7.45l46.8-24.32a4,4,0,0,0,1.68-5.41,4,4,0,0,0-1.77-1.73l-72.84-36a3.82,3.82,0,0,0-3.54,0L133,262.33a4,4,0,0,0-2.25,3.63,4,4,0,0,0,2.25,3.6l78.44,38.1a3.84,3.84,0,0,0,3.58-.05l50.62-26.38v7.45L213.09,316l-76.64-37.2A4,4,0,1,0,133,286h0l78.44,38.1a3.95,3.95,0,0,0,3.58-.06l50.62-26.37v7.88L213.1,332.93l-76.64-37.21A4,4,0,0,0,133,303L211.44,341a4,4,0,0,0,1.73.43A3.76,3.76,0,0,0,215,341l50.62-26.34V322L213.1,349.31l-76.63-37.18a4,4,0,1,0-3.46,7.2l78.44,38.08a3.7,3.7,0,0,0,3.57-.06L271.51,328l95.64-49.79a4,4,0,0,0-3.71-7.13Zm-93.83-1L202.65,237.2l38-18.57L306.41,251Zm22-76.41,64,31.64-40.38,21-65.44-32.23ZM213.1,299.56l-69.22-33.63,49.67-24.26,67.18,33.07Zm70.51-27.7s.08,0,.11,0l27.81-14.47v40.72l-37.88,19.75V277.09Z"/><path class="cls-2" d="M202.41,195.78c32.33,0,56.75-11.54,56.75-26.82s-24.39-26.8-56.75-26.8-56.79,11.53-56.79,26.8S170.05,195.78,202.41,195.78Zm0-45.6c28.73,0,48.71,9.91,48.71,18.78s-20,18.8-48.71,18.8-48.72-9.91-48.72-18.8,20-18.78,48.72-18.78Z"/><path class="cls-2" d="M258.19,192.31a4,4,0,0,0-7.18-3.58c0,.1-.1.2-.14.3-2.76,6.13-22.06,12.75-48.46,12.75S156.69,195.16,153.9,189a4,4,0,1,0-7.4,3.09,2.14,2.14,0,0,0,.1.22c5.44,12,32.73,17.52,55.81,17.52S252.8,204.33,258.19,192.31Z"/><path class="cls-2" d="M206.41,221a4,4,0,0,0-4-4h0c-26.4,0-45.72-6.68-48.51-12.81a4.07,4.07,0,0,0-5.33-2,4,4,0,0,0-2,5.31c5.44,12,32.73,17.51,55.81,17.51A4,4,0,0,0,206.41,221Z"/><path class="cls-2" d="M177.47,236.31a4,4,0,0,0,.59-8c-16.81-2.52-23.26-6.79-24.29-8.67a4,4,0,0,0-7,3.82c4.06,7.4,18.64,11,30.14,12.76A4,4,0,0,0,177.47,236.31Z"/><path class="cls-2" d="M153.53,234.14a4,4,0,0,0-6.61,4.58c2.22,3.2,7.34,5.73,15.65,7.75a3.79,3.79,0,0,0,1,.1,4,4,0,0,0,1-7.9C155.2,236.42,153.61,234.25,153.53,234.14Z"/><ellipse class="cls-2" cx="254.54" cy="243.8" rx="18.06" ry="6.93" transform="translate(-73.99 116.14) rotate(-22.53)"/></svg>