<svg id="Layer_1" data-name="Layer 1" xmlns="http://www.w3.org/2000/svg" viewBox="0 0 500 500"><defs><style>.cls-1,.cls-2{fill:#0f6788;}.cls-1{opacity:0.19;}</style></defs><circle class="cls-1" cx="250" cy="250" r="167.19"/><path class="cls-2" d="M250,50C139.54,50,50,139.54,50,250s89.54,200,200,200,200-89.53,200-200S360.47,50,250,50Zm0,385.49C147.55,435.49,64.51,352.44,64.51,250A185.48,185.48,0,0,1,250,64.51c102.44,0,185.49,83,185.49,185.49S352.44,435.49,250,435.49Z"/><path class="cls-2" d="M322.72,142.93H177.28a5.91,5.91,0,0,0-5.91,5.9V351.16a5.93,5.93,0,0,0,5,5.84,5.74,5.74,0,0,0,.93.07H322.73A5.55,5.55,0,0,0,324,357l.23-.06a3.45,3.45,0,0,0,.43-.12,5.91,5.91,0,0,0,4-5.61V148.83A5.91,5.91,0,0,0,322.72,142.93Zm-.39,12.59v189a6.47,6.47,0,0,1-6.47,6.46H184.13a6.47,6.47,0,0,1-6.46-6.46v-189a6.48,6.48,0,0,1,6.47-6.46H315.87A6.44,6.44,0,0,1,322.33,155.52Z"/><path class="cls-2" d="M279.48,182.79a3.12,3.12,0,0,1-2.21,3.27,2.44,2.44,0,0,1-.55.06H223.29c-1.63,0-2.78-1.51-2.77-3.39a3.26,3.26,0,0,1,2.09-3.31,1.92,1.92,0,0,1,.69-.1h53.42C278.35,179.32,279.48,180.91,279.48,182.79Z"/><path class="cls-2" d="M302.86,171.1c0,1.87-2,3.34-4.95,3.33h-95.8c-2.91,0-5-1.51-5-3.38,0-.07,0-.15,0-.21.1-1.32,1.22-2.44,2.93-2.94a7.22,7.22,0,0,1,2-.27h95.8C300.83,167.63,302.86,169.22,302.86,171.1Z"/><path class="cls-2" d="M278.29,228.38h0c0,2.15-1.24,3.89-2.77,3.89H190.09c-1.52,0-2.76-1.74-2.76-3.89h0c0-2.15,1.24-3.89,2.76-3.89h85.43C277.05,224.49,278.29,226.23,278.29,228.38Z"/><path class="cls-2" d="M278.29,270.45h0c0,2.14-1.24,3.88-2.77,3.88H190.09c-1.52,0-2.76-1.74-2.76-3.88h0c0-2.15,1.24-3.89,2.76-3.89h85.43C277.05,266.56,278.29,268.3,278.29,270.45Z"/><path class="cls-2" d="M278.29,292.72h0c0,2.14-1.24,3.88-2.77,3.88H190.09c-1.52,0-2.76-1.74-2.76-3.88h0c0-2.15,1.24-3.89,2.76-3.89h85.43C277.05,288.83,278.29,290.57,278.29,292.72Z"/><path class="cls-2" d="M278.29,314.16h0c0,2.15-1.24,3.89-2.77,3.89H190.09c-1.52,0-2.76-1.74-2.76-3.89h0c0-2.15,1.24-3.89,2.76-3.89h85.43C277.05,310.27,278.29,312,278.29,314.16Z"/><path class="cls-2" d="M278.29,249.88h0c0,2.15-1.24,3.89-2.77,3.89H190.09c-1.52,0-2.76-1.74-2.76-3.89h0c0-2.14,1.24-3.88,2.76-3.88h85.43C277.05,246,278.29,247.74,278.29,249.88Z"/><path class="cls-2" d="M303.85,306.19H296.7a4.39,4.39,0,0,0-4.39,4.39v7.16a4.39,4.39,0,0,0,4.38,4.39h7.15a4.39,4.39,0,0,0,4.39-4.39v-7.16A4.39,4.39,0,0,0,303.85,306.19Zm2.17,5.54v4.86a3.31,3.31,0,0,1-3.31,3.31h-4.86a3.32,3.32,0,0,1-3.31-3.32v-4.86a3.31,3.31,0,0,1,3.31-3.31h4.86A3.32,3.32,0,0,1,306,311.73Z"/><path class="cls-2" d="M303.85,220.42h-7.16a4.28,4.28,0,0,0-2.62.88,4.39,4.39,0,0,0-1.77,3.51V232a4.39,4.39,0,0,0,4.39,4.38h7.16a4.39,4.39,0,0,0,4.39-4.38V224.8A4.37,4.37,0,0,0,303.85,220.42ZM306,226v4.86a3.31,3.31,0,0,1-3.31,3.31h-4.89a3.31,3.31,0,0,1-3.28-3.31V226a3.23,3.23,0,0,1,.43-1.63,3.31,3.31,0,0,1,2.88-1.69h4.86A3.31,3.31,0,0,1,306,226Z"/><path class="cls-2" d="M306.58,264.27a4.32,4.32,0,0,0-2.73-1h-7.16a4.38,4.38,0,0,0-4.38,4.38v7.16a4.37,4.37,0,0,0,4.39,4.38h7.15a4.71,4.71,0,0,0,.53,0,4.37,4.37,0,0,0,3.85-4.36v-7.15A4.35,4.35,0,0,0,306.58,264.27Zm-.57,4.58v4.85a3.3,3.3,0,0,1-2.31,3.16,3.37,3.37,0,0,1-1,.16h-4.86a3.31,3.31,0,0,1-3.31-3.31v-4.86a3.31,3.31,0,0,1,3.31-3.31h4.86A3.31,3.31,0,0,1,306,268.85Z"/><path class="cls-2" d="M306.19,285.43a4.39,4.39,0,0,0-2.34-.68H296.7a4.38,4.38,0,0,0-4.39,4.39v7.15a4.38,4.38,0,0,0,4.39,4.39h7.14a4.38,4.38,0,0,0,4.39-4.39v-7.15A4.34,4.34,0,0,0,306.19,285.43Zm-.18,4.86v4.86a3.3,3.3,0,0,1-3.31,3.3h-4.86a3.31,3.31,0,0,1-3.31-3.31v-4.86a3.32,3.32,0,0,1,3.31-3.32h4.86A3.32,3.32,0,0,1,306,290.29Z"/><path class="cls-2" d="M303.85,241.86h-7.16a4.41,4.41,0,0,0-4.38,4.38v7.16a4.4,4.4,0,0,0,4.4,4.39h7.15a4.3,4.3,0,0,0,.82-.08,4.41,4.41,0,0,0,3.57-4.31v-7.15A4.39,4.39,0,0,0,303.85,241.86ZM306,247.4v4.85a3.32,3.32,0,0,1-2,3.06,3.13,3.13,0,0,1-1.27.26h-4.86a2.06,2.06,0,0,1-.35,0,3.31,3.31,0,0,1-3-3.29V247.4a3.34,3.34,0,0,1,3.31-3.32h4.87A3.3,3.3,0,0,1,306,247.4Z"/></svg>