<svg id="Layer_1" data-name="Layer 1" xmlns="http://www.w3.org/2000/svg" viewBox="0 0 500 500"><defs><style>.cls-1,.cls-2{fill:#2d98d4;}.cls-1{opacity:0.2;}</style></defs><path class="cls-1" d="M90,50H450a0,0,0,0,1,0,0V410a40,40,0,0,1-40,40H50a0,0,0,0,1,0,0V90A40,40,0,0,1,90,50Z"/><path class="cls-2" d="M368.73,272.07,322.81,296v-7.74l49.81-25.91a4.21,4.21,0,0,0,1.78-5.67,4.17,4.17,0,0,0-5.67-1.76l-45.92,23.93v-8.28l49.81-25.94a4.19,4.19,0,1,0-3.89-7.43l-45.92,23.9v-7.8l49-25.46a4.2,4.2,0,0,0-.09-7.48l-76.26-37.7a4,4,0,0,0-3.71,0L127.48,262.91a4.22,4.22,0,0,0-2.35,3.8,4.16,4.16,0,0,0,2.35,3.77l82.13,39.89a4,4,0,0,0,3.74-.06l53-27.61v7.8l-55,28.63-80.23-38.95a4.18,4.18,0,0,0-3.63,7.54l82.13,39.89a4.1,4.1,0,0,0,1.81.42,4.24,4.24,0,0,0,1.93-.48l53-27.61v8.25l-55,28.63-80.23-38.95a4.2,4.2,0,0,0-3.63,7.57l82.13,39.86a4.14,4.14,0,0,0,1.81.45,3.92,3.92,0,0,0,1.93-.51l53-27.58v7.68l-55,28.63-80.23-38.92a4.18,4.18,0,0,0-3.63,7.54l82.13,39.86a3.76,3.76,0,0,0,1.81.45,3.92,3.92,0,0,0,1.93-.51l59.14-30.73,100.13-52.13a4.21,4.21,0,0,0-3.89-7.46Zm-98.23-1L200.42,236.6l39.78-19.44L309.06,251Zm23-80,67,33.12-42.27,22-68.52-33.74ZM211.37,301.89,138.9,266.68l52-25.4,70.33,34.62Zm73.82-29s.08,0,.11-.05l29.12-15.14v42.63L274.76,321V278.36Z"/><path class="cls-2" d="M200.17,193.23c33.85,0,59.42-12.08,59.42-28.07s-25.54-28.06-59.42-28.06-59.45,12.07-59.45,28.06S166.29,193.23,200.17,193.23Zm0-47.74c30.08,0,51,10.38,51,19.67s-20.95,19.68-51,19.68-51-10.38-51-19.68S170.09,145.49,200.17,145.49Z"/><path class="cls-2" d="M258.57,189.6a4.2,4.2,0,1,0-7.66-3.43c-2.89,6.41-23.1,13.35-50.74,13.35s-47.86-6.94-50.78-13.38a4.2,4.2,0,1,0-7.65,3.46c5.7,12.59,34.27,18.34,58.43,18.34S252.93,202.19,258.57,189.6Z"/><path class="cls-2" d="M204.36,219.6a4.18,4.18,0,0,0-4.16-4.2c-27.64,0-47.86-7-50.78-13.41a4.26,4.26,0,0,0-5.58-2.07,4.21,4.21,0,0,0-2.1,5.56c5.7,12.58,34.27,18.34,58.43,18.34A4.21,4.21,0,0,0,204.36,219.6Z"/><path class="cls-2" d="M174.06,235.67a4.19,4.19,0,0,0,.62-8.34c-17.6-2.63-24.35-7.11-25.43-9.07a4.2,4.2,0,0,0-7.37,4c4.25,7.74,19.51,11.54,31.55,13.35A4.65,4.65,0,0,0,174.06,235.67Z"/><path class="cls-2" d="M149,233.4a4.21,4.21,0,0,0-6.92,4.79c2.32,3.35,7.68,6,16.38,8.11a3.79,3.79,0,0,0,1,.11,4.19,4.19,0,0,0,1-8.27C150.75,235.78,149.08,233.51,149,233.4Z"/><ellipse class="cls-2" cx="254.74" cy="243.53" rx="18.91" ry="7.26" transform="translate(-73.86 116.17) rotate(-22.53)"/></svg>