<svg id="Layer_1" data-name="Layer 1" xmlns="http://www.w3.org/2000/svg" viewBox="0 0 500 500"><defs><style>.cls-1{fill:black;}</style></defs><path class="cls-1" d="M432.61,275,337.09,151.79a11.07,11.07,0,0,0-11.93-3.95l-36.23,10.77a11,11,0,0,0,.55-1.08,74.32,74.32,0,0,0,0-66.59l0,0C276.8,66,250.82,50,223.33,50a74.44,74.44,0,0,0-66.07,107.09l17.91,35.39-91.65,27.3a11.62,11.62,0,0,0-7.7,7.7,12.53,12.53,0,0,0,2,11.53L92,257.36l-13.73,4.07a11.86,11.86,0,0,0-7.7,7.74,12.58,12.58,0,0,0,2,11.53l14.2,18.36-13.68,4.07a11.6,11.6,0,0,0-7.7,7.7,12.52,12.52,0,0,0,2,11.53l95.52,123.21A11.11,11.11,0,0,0,171.7,450a11.91,11.91,0,0,0,3.11-.44l241.64-71.94a11.64,11.64,0,0,0,7.7-7.7,12.5,12.5,0,0,0-2-11.53L408,340l13.72-4.06a11.64,11.64,0,0,0,7.71-7.71,12.57,12.57,0,0,0-2-11.53l-14.2-18.35,13.72-4.07a11.84,11.84,0,0,0,7.7-7.74A12.57,12.57,0,0,0,432.61,275ZM164.36,153.5a66.05,66.05,0,0,1,59-95.52c24.5,0,47.68,14.32,59,36.51a66.32,66.32,0,0,1,0,59.45c-1,2-2.39,4.67-4,7.82-1.79,3.51-3.91,7.66-6.26,12.29-7.34,14.24-16.8,32.72-25.46,49.56-14.48,28.21-22.78,44.41-23.46,45.76-.08,0-.2-.08-.24-.2L187.5,199.23l-4.59-9.06Zm249.93,211a2.59,2.59,0,0,1,.36,2.36,1.64,1.64,0,0,1-1,1.19L172,440a1.08,1.08,0,0,1-1.2-.51L75.26,316.25a2.46,2.46,0,0,1-.36-2.35,1.65,1.65,0,0,1,1-1.2l17.44-5.18,74.73,96.4a11.15,11.15,0,0,0,8.82,4.38,10.8,10.8,0,0,0,3.11-.43l217.65-64.8Zm5.23-41.69a2.69,2.69,0,0,1,.36,2.35,1.8,1.8,0,0,1-1,1.24l-17.43,5.19-10.26,3.07-214,63.64c-.52.2-1-.28-1.16-.48l-72.38-93.37L97.09,296,80.45,274.56a2.7,2.7,0,0,1-.36-2.36A1.91,1.91,0,0,1,81.17,271l17.43-5.19L117.32,290l6.58,8.46,49.44,63.8a11.16,11.16,0,0,0,8.81,4.39,10.5,10.5,0,0,0,3.12-.44l187.17-55.7,10.25-3,20.23-6Zm5.59-39.3a1.89,1.89,0,0,1-1.08,1.19l-17.44,5.19-10.21,3-20.27,6L365.85,302,182.39,356.63a1.22,1.22,0,0,1-1.19-.52l-47.09-60.72-6.54-8.46-18.75-24.14-6.55-8.5L85.67,232.9a2.66,2.66,0,0,1-.35-2.39,1.8,1.8,0,0,1,1-1.2l93.41-27.77,36,71.22a8.59,8.59,0,0,0,7.54,4.67,7.07,7.07,0,0,0,7.06-4.71c.4-.75,11.53-22.46,23.34-45.48,10.1-19.63,21.31-41.5,28.93-56.34L328,157.41a.78.78,0,0,1,.28,0,1.29,1.29,0,0,1,.92.52L424.75,281.1A2.78,2.78,0,0,1,425.11,283.5Z"/><path class="cls-1" d="M203.3,164a43.86,43.86,0,0,0,20.07,4.78c10.69,0,21.75-3.83,32-11.37l.84-.84c12.41-16.83,14.8-35.83,6.58-52.11A44.25,44.25,0,1,0,203.3,164Zm20-75.7A36.07,36.07,0,0,1,255.69,108c6.74,13.33,4.71,29.09-5.55,43.3-14.2,10.25-29.92,12.25-43.25,5.54a36.28,36.28,0,0,1,16.44-68.59Z"/></svg>
