<svg id="Layer_1" data-name="Layer 1" xmlns="http://www.w3.org/2000/svg" viewBox="0 0 500 500"><defs><style>.cls-1,.cls-2{fill:#2d98d4;}.cls-1{opacity:0.2;}</style></defs><path class="cls-1" d="M90,50H450a0,0,0,0,1,0,0V410a40,40,0,0,1-40,40H50a0,0,0,0,1,0,0V90A40,40,0,0,1,90,50Z"/><path class="cls-2" d="M309.06,190.79l31.39-44.43a8.51,8.51,0,0,0,.18-9.57,7.58,7.58,0,0,0-7.92-3.46l-21.5,4.18-5.33-33.61A8,8,0,0,0,301,97.7a7.35,7.35,0,0,0-7.29,1.12l-25.59,20.32L253.56,96.61A7.82,7.82,0,0,0,246.9,93a7.73,7.73,0,0,0-6.52,3.94l-15.13,26L202.7,100.49a6.38,6.38,0,0,0-6.24-1.67,6.74,6.74,0,0,0-4.68,4.84l-10.52,40.85-16.87-2.57a7.72,7.72,0,0,0-7.89,4,8.59,8.59,0,0,0,.89,9.68L192,196.5c-34.93,36.1-49.69,83-51.37,100.49-2.51,26.34,6.43,52.22,25.18,72.84C187,393.11,218.49,407,250.18,407a111.4,111.4,0,0,0,79.26-33.36,105,105,0,0,0,30.33-76.33C359,264.18,339.88,216.28,309.06,190.79Zm-11.65-83.56,5.07,32-19,3.7L273,126.64Zm-98,2.51,21.25,21.14-10.49,18-20.06-3.06Zm10.27,48.08a7.65,7.65,0,0,0,7.82-3.85l29.64-51,29.28,45.3a7.68,7.68,0,0,0,7.92,3.48l48-9.33-30.65,43.39a61,61,0,0,1-20,4.94c-4.67.31-7.92.75-10.29,1.08-4.75.65-6,.83-11.06-.86-4.14-1.39-7.85-2.73-11.19-3.95-11.24-4.08-18.67-6.78-25.85-5l-1.89.46c-7.3,1.74-16.61,4-22.46,8.43L165.2,151.05ZM323.09,367.43a102.49,102.49,0,0,1-72.91,30.68c-29.22,0-58.31-12.8-77.81-34.25-17.05-18.76-25.19-42.21-22.91-66,1.55-16.28,16.72-63.54,51.65-97.93,0,0,15.66-7.19,22.31-8.78l1.92-.47c4.57-1.1,11,1.23,20.72,4.76,3.4,1.24,7.17,2.61,11.4,4a27.55,27.55,0,0,0,9.12,1.78,43.64,43.64,0,0,0,6-.55c2.36-.32,5.31-.73,9.67-1a69,69,0,0,0,18.81-4c30.25,23.24,49.1,69.86,49.86,101.82A96.19,96.19,0,0,1,323.09,367.43Z"/></svg>