<svg id="Layer_1" data-name="Layer 1" xmlns="http://www.w3.org/2000/svg" viewBox="0 0 500 500"><defs><style>.cls-1,.cls-2{fill:#2d98d4;}.cls-1{opacity:0;}</style></defs><path class="cls-1" d="M90,50H450a0,0,0,0,1,0,0V410a40,40,0,0,1-40,40H50a0,0,0,0,1,0,0V90A40,40,0,0,1,90,50Z"/><path class="cls-2" d="M385,190.33a3.62,3.62,0,0,0-3.91-3,19,19,0,0,0-17.16,19.86l.81,33.1a24.07,24.07,0,0,0-20.06,13.64l-11.82,24.82a29.09,29.09,0,0,1-8.06,10.18l-2.46,2a49.15,49.15,0,0,0-18.36,42L298,330a3.62,3.62,0,0,0-4.81,1.71h0l-13,27.22a3.6,3.6,0,0,0,1.7,4.81h0l59.73,28.45a3.61,3.61,0,0,0,4.81-1.71h0l13-27.22a3.61,3.61,0,0,0-1.71-4.81h0l-3-1.41-.67-9a13.62,13.62,0,0,1,3.1-9.74l30.93-37.43c.06-.06.1-.13.15-.19a50.55,50.55,0,0,0,9.45-30.09,2.94,2.94,0,0,0-.05-.51ZM341.47,384.08l-53.21-25.35,9.86-20.7,53.21,25.35Zm41-87.72L351.6,333.69a20.79,20.79,0,0,0-4.73,14.88l.36,4.86L311.69,336.5a42,42,0,0,1,15.17-40l2.45-2a36.46,36.46,0,0,0,10.07-12.71L351.2,257a16.86,16.86,0,0,1,19-9.16L352.49,285a3.61,3.61,0,0,0,6.52,3.11h0l19.43-40.8a3.6,3.6,0,0,0-1.7-4.81h0a24.54,24.54,0,0,0-4.77-1.67l-.82-33.91s0-.06,0-.1a11.81,11.81,0,0,1,7.34-11.54l12,75.64a43.26,43.26,0,0,1-8,25.42Z"/><path class="cls-2" d="M145.94,348l-.68,9-2.95,1.41a3.61,3.61,0,0,0-1.71,4.81h0l13,27.22a3.61,3.61,0,0,0,4.81,1.71h0L218.1,363.7a3.61,3.61,0,0,0,1.71-4.81h0l-13-27.22A3.59,3.59,0,0,0,202,330h0l-6,2.87a49.14,49.14,0,0,0-18.36-42l-2.46-2a29.24,29.24,0,0,1-8.05-10.18L155.31,253.9a24,24,0,0,0-20.05-13.64l.8-33.11a19,19,0,0,0-17.15-19.85,3.62,3.62,0,0,0-3.92,3l-12.63,79.74a2.94,2.94,0,0,0,0,.51,50.55,50.55,0,0,0,9.45,30.09c0,.06.09.13.15.19l30.93,37.43A13.67,13.67,0,0,1,145.94,348Zm65.8,10.7-53.21,25.35-9.86-20.7L201.88,338ZM109.52,270.94l12-75.64a11.79,11.79,0,0,1,7.34,11.54v.1L128,240.85a23.62,23.62,0,0,0-4.76,1.68,3.61,3.61,0,0,0-1.71,4.81h0L141,288.14a3.61,3.61,0,0,0,6.52-3.1h0l-17.71-37.2a16.86,16.86,0,0,1,19,9.16l11.82,24.82a36.54,36.54,0,0,0,10.06,12.71l2.46,2a42,42,0,0,1,15.17,40l-35.54,16.93.36-4.86a20.88,20.88,0,0,0-4.73-14.88l-30.86-37.33A43.36,43.36,0,0,1,109.52,270.94Z"/><path class="cls-2" d="M250,137.75a3.61,3.61,0,0,0,3.61-3.61v-23a3.61,3.61,0,0,0-7.22,0v23A3.61,3.61,0,0,0,250,137.75Z"/><path class="cls-2" d="M160.43,200.68h24a3.61,3.61,0,1,0,0-7.21h-24a3.61,3.61,0,1,0,0,7.21Z"/><path class="cls-2" d="M312,197.08a3.61,3.61,0,0,0,3.61,3.6h24a3.61,3.61,0,1,0,0-7.21h-24A3.61,3.61,0,0,0,312,197.08Z"/><path class="cls-2" d="M201.29,155.19a3.61,3.61,0,0,0,5-5.23l-17.07-16.22a3.61,3.61,0,1,0-5,5.23Z"/><path class="cls-2" d="M296.22,156.18a3.59,3.59,0,0,0,2.49-1L315.78,139a3.61,3.61,0,0,0-5-5.23L293.74,150a3.61,3.61,0,0,0,2.48,6.22Z"/><path class="cls-2" d="M247.77,159.26a46.73,46.73,0,0,0-46.67,46.67c0,18.39,8.44,33.76,22.63,41.31v16.25a8.84,8.84,0,0,0,6.36,8.52v8.28a7.68,7.68,0,0,0,7.67,7.67h1.53v.43a8.07,8.07,0,0,0,8.06,8.06h.85a8.07,8.07,0,0,0,8.06-8.06V288h1.52a7.68,7.68,0,0,0,7.67-7.67V272a8.85,8.85,0,0,0,6.37-8.52V247.24c14.18-7.55,22.63-22.92,22.63-41.31A46.73,46.73,0,0,0,247.77,159.26Zm20,83.72-1.25.62.15.33a2.81,2.81,0,0,0-.51,1.63v17.93a3.26,3.26,0,0,1-3.25,3.26H232.64a3.25,3.25,0,0,1-3.25-3.26V245.56a2.82,2.82,0,0,0-.52-1.63l.17-.35-1.27-.6c-13.35-6.36-21-19.87-21-37a41,41,0,1,1,82,0C288.79,223.11,281.13,236.62,267.77,243ZM250.6,288.39a2.41,2.41,0,0,1-2.4,2.4h-.85a2.41,2.41,0,0,1-2.41-2.4V288h5.66Zm9.19-8.1a2,2,0,0,1-2,2h-20a2,2,0,0,1-2-2V272.4h24Z"/></svg>
