<svg id="Layer_1" data-name="Layer 1" xmlns="http://www.w3.org/2000/svg" viewBox="0 0 500 500"><defs><style>.cls-1,.cls-2{fill:#2d98d4;}.cls-1{opacity:0.2;}</style></defs><path class="cls-1" d="M90,50H450a0,0,0,0,1,0,0V410a40,40,0,0,1-40,40H50a0,0,0,0,1,0,0V90A40,40,0,0,1,90,50Z"/><path class="cls-2" d="M388.42,166.29l-50-28.9h0v0l.53-3a6.36,6.36,0,0,0-5.17-7.36l-19.26-3.41h0l-11-6.36a6.36,6.36,0,0,0-6.31-5.6h-3.41L252.54,87.86a6.37,6.37,0,0,0-8.7,2.33l-11,19h0l-53.63-9.47a6.36,6.36,0,0,0-7.38,5.17l-1.18,6.71H140.22a6.37,6.37,0,0,0-6.36,6.37V221.87H119a10.59,10.59,0,0,0-10.57,10.59V401a12,12,0,0,0,12,12H367.26a12,12,0,0,0,12-12V258.47l0-.69c0-.27,0-.54,0-.79a11.14,11.14,0,0,0-.13-1.74l0-.62H379a10.55,10.55,0,0,0-10.3-8.22H349.5L390.73,175A6.34,6.34,0,0,0,388.42,166.29Zm-212-48h0l.89-5.07a7.24,7.24,0,0,1,.47-1.56h0a7,7,0,0,1,7.62-4.07l23.12,4.07h0l20.84,3.67h0l-1.72,3-14.3,24.8-3.83,6.63-.18.29-4.83,8.39L197.2,171h0l-12.57-2.21a3.79,3.79,0,0,0-.67-.06,4.21,4.21,0,0,0-.77,8.31l9.54,1.68-.91,1.6L187,188.7l0,0h0l-.27,0h0l-5.4-.95a3.71,3.71,0,0,0-.67-.06,3.88,3.88,0,0,0-2.05.59,5,5,0,0,0-.6.43,4.27,4.27,0,0,0-1.36,2.47,4.08,4.08,0,0,0,3.22,4.83l2.66.47h0l-1.8,3.12-4.12,7.13h0a3.89,3.89,0,0,0-2.19,1.23,4.26,4.26,0,0,0-1,4.23h0l-3.84,6.65-1.74,3h-9.69l.52-3h0L160.56,208h0l1.48-8.37h0L164,188.7h0l1.46-8.37h0Zm-35.73,7a7,7,0,0,1,7-7H169.5l-10.95,62.07h-2a3.92,3.92,0,0,0-2.83,1.21,4.29,4.29,0,0,0-1.18,3,4.09,4.09,0,0,0,4,4.2h.48l-2,11.17h0a3.61,3.61,0,0,0-1.35.92,4.32,4.32,0,0,0,.11,6h0v0l-2.63,15H140.65Zm228,128.88a2.89,2.89,0,0,1,2.88,2.9,2.37,2.37,0,0,1-.07.64l-.89,4.69h1V401a4.32,4.32,0,0,1-4.3,4.32H120.39a4.33,4.33,0,0,1-4.31-4.32V262.32h1.14l-1.06-4.69a2.39,2.39,0,0,1-.08-.64V232.46a2.89,2.89,0,0,1,2.89-2.9h93.38a2.85,2.85,0,0,1,1.35.34l43.59,23a10.76,10.76,0,0,0,4.94,1.21Zm12.58-76.24-39.58,68.56H329.63a3.68,3.68,0,0,0-1.39-1.38l-3.45-2-6.25-3.61-9.12-5.27-4.54-2.62h0l0,0-2.21-1.28-14.44-8.33-4.54-2.64-9.45-5.45-18.09-10.44-.77-.45-14.5-8.37-5.94-3.43L222,183.67l-1.3-.75a3.85,3.85,0,0,0-1.94-.53,4.12,4.12,0,0,0-3,1.28,3.21,3.21,0,0,0-.67.87,4.28,4.28,0,0,0-.51,3,4,4,0,0,0,1.89,2.64l7.58,4.38,7.91,4.56,6.59,3.81,18.86,10.89,2.09,1.2h0l0,0L272,222.19l8.8,5.09,0,0h0l21.84,12.62,6.79,3.91,4.46,2.58H292.13l-8.59-4.95L277,237.67l-7.92-4.59-18.86-10.89-.75-.42-13.77-8-7.46-4.32-11.4-6.57-5.76-3.32a3.91,3.91,0,0,0-1.94-.53,4.21,4.21,0,0,0-3.63,2.15,3.74,3.74,0,0,0-.55,1.7,3.94,3.94,0,0,0,.55,2.58,3.85,3.85,0,0,0,1.37,1.35l12.05,7,6.41,3.69,8.11,4.68,18.86,10.89.56.33,14,8.05,7.25,4.2,0,0h0l1.27.73H262.23a2.89,2.89,0,0,1-1.34-.33l-43.62-23a10.4,10.4,0,0,0-4.92-1.23h-1.23l-9.7-5.6a4,4,0,0,0-1.95-.5,4.19,4.19,0,0,0-3.63,2.13,4.11,4.11,0,0,0-.15,4h-20l1.74-3,2-3.36h0l2.52-4.37L183.7,208H185l-1.16-.2h0l4.7-8.17,1.1-1.87,1.8-3.13,2.65-4.59h0l.77-1.29,4.85-8.38.18-.34h0l2.64-4.59,1.81-3.14,8-13.89L216,152l1.2-2,3.26-5.68,15.05-26,1-1.7,2.86-4.93h0l.69-1.18,6.14-10.62a7,7,0,0,1,9.51-2.54l24.84,14.34,14.91,8.6,8.11,4.68,8.64,5,18.75,10.83,0,0,6.23,3.61,41.57,24A7,7,0,0,1,381.26,177.85Z"/><path class="cls-2" d="M347.5,211.64l-15.59-9L325.66,199l-11-6.35-5.23-3-6.8-3.93-5.55-3.21,0,0-6.37-3.67-6.14-3.54-38-22-5.05-2.92h0l-1.5-.88A3.89,3.89,0,0,0,238,149a3.72,3.72,0,0,0-1.84.46h0a4.24,4.24,0,0,0-1.78,1.69,4.16,4.16,0,0,0-.59,2.15,4,4,0,0,0,2,3.48l32,18.48,5.13,3,0,0,9.37,5.39,11.9,6.87,8.45,4.89,6.8,3.91,14.7,8.48,6.24,3.61,13,7.48a4.19,4.19,0,0,0,4.18-7.26Z"/><path class="cls-2" d="M337.87,228.33l-9.51-5.49-6.25-3.61-12-6.9h0l-.71-.42-6.8-3.92-12.26-7.09-.17-.08-10.82-6.27L262.82,185l-2.33-1.34L246,175.29l-4.4-2.56h0l-11.28-6.51a3.94,3.94,0,0,0-1.92-.53,4.21,4.21,0,0,0-3.63,2.15,4,4,0,0,0-.57,1.83,3.92,3.92,0,0,0,2,3.81l3.12,1.81,9.45,5.45h0l5,2.92,18.88,10.89,3.63,2.09,0,0,10.85,6.26,10.32,6,0,0,15.16,8.74,6.8,3.93L320.55,228l6.27,3.61,6.87,4a4.19,4.19,0,0,0,4.18-7.26Z"/><path class="cls-2" d="M271.74,142.56l11.66,6.73,14,8.07,5.23,3,6.8,3.92L329.72,176l6.26,3.61,1.68,1a4.19,4.19,0,0,0,4.18-7.26l-4.32-2.5-6.24-3.6-21.86-12.62-6.8-3.93-26.68-15.41a4.12,4.12,0,0,0-2.09-.57,4.21,4.21,0,0,0-2.11,7.85Z"/></svg>