<svg id="Layer_1" data-name="Layer 1" xmlns="http://www.w3.org/2000/svg" viewBox="0 0 500 500"><defs><style>.cls-1,.cls-2{fill:#2d98d4;}.cls-1{opacity:0.19;}</style></defs><path class="cls-1" d="M90,50H450a0,0,0,0,1,0,0V410a40,40,0,0,1-40,40H50a0,0,0,0,1,0,0V90A40,40,0,0,1,90,50Z"/><path class="cls-2" d="M349,133.89v3.55a46.26,46.26,0,0,1-.21,5.36.92.92,0,0,0,.65,1l39.9,12.47a1,1,0,0,1,.67.91v25.43a1,1,0,0,1-.23.62L329.9,252.39a5.86,5.86,0,0,0-1.29,2.91v73.16a.94.94,0,0,1-1.09.93,237.3,237.3,0,0,0-28-2.7.94.94,0,0,1-.91-.94v-82a1,1,0,0,0-1.21-.94,12.67,12.67,0,0,1-3.63.54h0a10.49,10.49,0,0,1-3.32-.53.94.94,0,0,0-1.2.91v81.58a1,1,0,0,1-1,1c-11.77-.78-20.78-4.32-26.74-10.91a27.43,27.43,0,0,1-2.58-3.23l-.33-.33c-6.13-9.36-5.49-20.34-5.49-20.34v-70.2a5.49,5.49,0,0,0-2.6-4.83,3.8,3.8,0,0,0-3.53-.2l-48.2,13.54a.94.94,0,0,1-1.2-.91V156.54a.93.93,0,0,1,.66-.9l39.62-12.48a.93.93,0,0,0,.65-1c-.21-2.55-.24-5.1-.25-7.65a.94.94,0,0,0-1.23-.9l-44,13.73a.89.89,0,0,1-.56,0L88.64,115.22a1,1,0,0,0-1.23.91V372.78a.94.94,0,0,0,.67.9L192.39,406a.89.89,0,0,0,.56,0l99.86-31.14a.89.89,0,0,1,.56,0L397.13,407a1,1,0,0,0,1.23-.9V149.45a1,1,0,0,0-.68-.91ZM99.3,128.47l23.59,7.47a.93.93,0,0,1,.67.92L122,208.51a1,1,0,0,1-1.23.89l-22-6.85a1,1,0,0,1-.67-.91V129.37A1,1,0,0,1,99.3,128.47Zm0,83.94,45.86,14.16a.94.94,0,0,1,.58,1.29l-20.79,45.92a.94.94,0,0,1-1.28.46L98.6,262a1,1,0,0,1-.54-.86V213.32A1,1,0,0,1,99.29,212.41ZM98.06,366.65V273.93a1,1,0,0,1,1.37-.85l49.2,24.14a.94.94,0,0,1,.47,1.18l-28.44,75.2a.93.93,0,0,1-1.17.57l-20.77-6.62A1,1,0,0,1,98.06,366.65Zm91.06,29.11-58.77-18.11a1,1,0,0,1-.61-1.24l30-79.14a4.38,4.38,0,0,0-2.26-5.81l-23.71-11.54a1,1,0,0,1-.45-1.25l21.55-47.47a1,1,0,0,1,1.15-.52l32.76,10.2a1,1,0,0,1,.66.91v154Zm0-166.61a.94.94,0,0,1-1.23.9l-34-10.59h-.32L132,212.57a1,1,0,0,1-.66-.93L132.91,140a.94.94,0,0,1,1.23-.88L188.45,156a1,1,0,0,1,.67.91Zm9.36,165.31V241.16a1,1,0,0,1,.7-.91l43.95-12.38a.94.94,0,0,1,1.2.91v62.68a46.12,46.12,0,0,0,3.5,19.83.93.93,0,0,1-.44,1.21,24.69,24.69,0,0,0-6.61,4.79C229.56,328.51,225,351.83,227.17,386a1,1,0,0,1-.65,1l-26.8,8.43A1,1,0,0,1,198.48,394.46Zm90.39-26.91-51.43,15.9a1,1,0,0,1-1.24-.88c-1.72-38.15,5.61-52.75,10.72-58.5a11.14,11.14,0,0,1,6.13-3.87c.65.65,1,1.29,1.62,1.94,7.91,8.54,19.23,13.36,34,14.16a.94.94,0,0,1,.9.93v29.41A1,1,0,0,1,288.87,367.55ZM390,395.76l-90.39-28.21a1,1,0,0,1-.67-.91v-29a1,1,0,0,1,1-1,248.7,248.7,0,0,1,32.92,3.52,458,458,0,0,1,56.82,13.68.93.93,0,0,1,.65.91v40.95Zm-1.17-52c-12.12-3.5-30-8.67-49.71-12.11a.94.94,0,0,1-.78-.93v-72.8a.93.93,0,0,1,.23-.62l49.76-57.85a1,1,0,0,1,1.67.62V342.85A.92.92,0,0,1,388.79,343.75Z"/><path class="cls-2" d="M291.48,232.7a2.94,2.94,0,0,0,2.58,1.61,2.1,2.1,0,0,0,2.26-1.61c.32-.65,31.32-61,38.43-74.92a45.41,45.41,0,1,0-81.37-.32Zm2.58-121.41c20.66,0,35.45,23.5,19.29,45.44-21.94,16.16-45.44,1.37-45.44-19.29A26.24,26.24,0,0,1,294.06,111.29Z"/><path class="cls-2" d="M292.5,382.42,328,394a4,4,0,0,1,2.29,4.75h0c-.49,2.06-2.29,3.27-4,2.7l-32.92-10.71a2.9,2.9,0,0,0-1.75,0l-54,17.55c-1.74.57-3.55-.64-4-2.7h0a4,4,0,0,1,2.29-4.76l56.56-18.39h0Z"/><path class="cls-2" d="M192.85,139.91l35.54-11.56a4,4,0,0,0,2.29-4.75h0c-.48-2.06-2.29-3.27-4-2.7l-32.92,10.7a2.76,2.76,0,0,1-1.75,0L138,114.06c-1.75-.57-3.56.64-4,2.7h0a4,4,0,0,0,2.29,4.75l56.56,18.4h0Z"/><rect class="cls-2" x="405.07" y="188.37" width="7.52" height="139.4" rx="0.87"/><rect class="cls-2" x="405.07" y="335.29" width="7.52" height="30.94" rx="0.87"/><rect class="cls-2" x="405.07" y="372.95" width="7.52" height="15.52" rx="0.87"/></svg>