<svg id="Layer_1" data-name="Layer 1" xmlns="http://www.w3.org/2000/svg" viewBox="0 0 500 500"><defs><style>.cls-1,.cls-2,.cls-3{fill:#2d98d4;}.cls-1{opacity:0.2;}.cls-2{fill-rule:evenodd;}</style></defs><path class="cls-1" d="M90,50H450a0,0,0,0,1,0,0V410a40,40,0,0,1-40,40H50a0,0,0,0,1,0,0V90A40,40,0,0,1,90,50Z"/><path class="cls-2" d="M203.56,377.21c-11.26,0-20.39-9.42-20.39-21s9.13-21,20.39-21,20.39,9.42,20.39,21S214.82,377.21,203.56,377.21Zm0-3.5c9.39,0,17-7.85,17-17.54s-7.6-17.54-17-17.54-17,7.86-17,17.54S194.18,373.71,203.56,373.71ZM198,354.93l3.89,4,7.3-7.53a1.67,1.67,0,0,1,2.4,0,1.8,1.8,0,0,1,0,2.48l-8.5,8.77a1.65,1.65,0,0,1-2.4,0l-5.1-5.26a1.8,1.8,0,0,1,0-2.48A1.68,1.68,0,0,1,198,354.93Zm41.27-5.77a1.76,1.76,0,0,1,0-3.51h54.37a1.76,1.76,0,0,1,0,3.51Zm0,17.53a1.76,1.76,0,0,1,0-3.51h30.59a1.76,1.76,0,0,1,0,3.51Z"/><path class="cls-2" d="M203.56,319.9c-11.26,0-20.39-9.42-20.39-21s9.13-21,20.39-21,20.39,9.42,20.39,21S214.82,319.9,203.56,319.9Zm0-3.5c9.39,0,17-7.85,17-17.54a17.26,17.26,0,0,0-17-17.53c-9.38,0-17,7.85-17,17.53S194.18,316.4,203.56,316.4Zm0-56.12c-11.26,0-20.39-9.42-20.39-21s9.13-21,20.39-21,20.39,9.42,20.39,21S214.82,260.28,203.56,260.28Zm0-3.5c9.39,0,17-7.86,17-17.54s-7.6-17.54-17-17.54-17,7.85-17,17.54S194.18,256.78,203.56,256.78Zm0,44.56-3.89,4a1.66,1.66,0,0,1-2.41,0,1.8,1.8,0,0,1,0-2.48l3.9-4-3.9-4c-1.6-1.65.8-4.13,2.41-2.48l3.89,4,3.9-4a1.67,1.67,0,0,1,2.4,0,1.8,1.8,0,0,1,0,2.48l-3.9,4,3.9,4c1.6,1.66-.8,4.14-2.4,2.48ZM198,238l3.89,4,7.3-7.53a1.67,1.67,0,0,1,2.4,0,1.8,1.8,0,0,1,0,2.48l-8.5,8.77a1.65,1.65,0,0,1-2.4,0l-5.1-5.26a1.8,1.8,0,0,1,0-2.48A1.66,1.66,0,0,1,198,238Zm41.27-5.77a1.76,1.76,0,0,1,0-3.51h54.37a1.76,1.76,0,0,1,0,3.51Zm0,17.53a1.76,1.76,0,0,1,0-3.51h30.59a1.76,1.76,0,0,1,0,3.51Zm0,42.09a1.76,1.76,0,0,1,0-3.51h54.37a1.76,1.76,0,0,1,0,3.51Zm0,17.53a1.75,1.75,0,0,1,0-3.5h30.59a1.75,1.75,0,0,1,0,3.5Z"/><path class="cls-3" d="M212.87,185.1a2.05,2.05,0,0,1-.65-.1c-.34-.1-8.44-2.68-16-12-6.82-8.43-14.49-24.3-12.31-52a2.25,2.25,0,0,1,1-1.68,2.19,2.19,0,0,1,1.93-.22c.45.16,10.65,3.58,24.86-5a2.19,2.19,0,0,1,2.69.33c.33.32,8.5,8.08,25.24,4.54a2.2,2.2,0,0,1,1.77.39,2.16,2.16,0,0,1,.88,1.58c.18,2.17,4.14,53.28-28.76,64A2.35,2.35,0,0,1,212.87,185.1Zm-24.73-61.17c-1.12,19.45,2.78,35.34,11.33,46.07a34.6,34.6,0,0,0,13.43,10.57c25.1-8.87,25.5-46.75,25.15-56.76-13.9,2.19-22.33-2.75-25.41-5.08C201.48,125,192.47,124.66,188.14,123.93Z"/><path class="cls-3" d="M333.72,411.82H166.28A10.3,10.3,0,0,1,156,401.53V98.47a10.3,10.3,0,0,1,10.29-10.29H333.72A10.3,10.3,0,0,1,344,98.47V401.53A10.3,10.3,0,0,1,333.72,411.82Zm-167.44-318a4.68,4.68,0,0,0-4.67,4.68V401.53a4.68,4.68,0,0,0,4.67,4.68H333.72a4.68,4.68,0,0,0,4.67-4.68V98.47a4.68,4.68,0,0,0-4.67-4.68Z"/><path class="cls-2" d="M251.94,142.13a1.8,1.8,0,1,1,0-3.5h71.14a1.8,1.8,0,1,1,0,3.5Z"/><path class="cls-2" d="M252.84,159.67c-1.73,0-3.13-.79-3.13-1.75s1.4-1.76,3.13-1.76h56.24c1.72,0,3.12.79,3.12,1.76s-1.4,1.75-3.12,1.75Z"/></svg>