<svg id="Layer_1" data-name="Layer 1" xmlns="http://www.w3.org/2000/svg" viewBox="0 0 500 500"><defs><style>.cls-1,.cls-2,.cls-3{fill:#2d98d4;}.cls-1{opacity:0.2;}.cls-2{fill-rule:evenodd;}</style></defs><path class="cls-1" d="M90,50H450a0,0,0,0,1,0,0V410a40,40,0,0,1-40,40H50a0,0,0,0,1,0,0V90A40,40,0,0,1,90,50Z"/><path class="cls-2" d="M207.1,367.53c-10.4,0-18.84-8.71-18.84-19.44s8.44-19.45,18.84-19.45,18.83,8.71,18.83,19.45S217.5,367.53,207.1,367.53Zm0-3.24a16.21,16.21,0,1,0-15.7-16.2A16,16,0,0,0,207.1,364.29Zm-5.17-17.35,3.6,3.71,6.74-6.95a1.54,1.54,0,0,1,2.22,0,1.66,1.66,0,0,1,0,2.29l-7.85,8.1a1.54,1.54,0,0,1-2.22,0l-4.71-4.86a1.66,1.66,0,0,1,0-2.29A1.54,1.54,0,0,1,201.93,346.94Zm38.13-5.33a1.62,1.62,0,0,1,0-3.24h50.23a1.62,1.62,0,0,1,0,3.24Zm0,16.2a1.62,1.62,0,0,1,0-3.24h28.26a1.62,1.62,0,0,1,0,3.24Z"/><path class="cls-2" d="M207.1,314.58c-10.4,0-18.84-8.7-18.84-19.44s8.44-19.44,18.84-19.44,18.83,8.7,18.83,19.44S217.5,314.58,207.1,314.58Zm0-3.24a16.21,16.21,0,1,0-15.7-16.2A16,16,0,0,0,207.1,311.34Zm0-51.84c-10.4,0-18.84-8.7-18.84-19.44s8.44-19.44,18.84-19.44,18.83,8.7,18.83,19.44S217.5,259.5,207.1,259.5Zm0-3.24a16.21,16.21,0,1,0-15.7-16.2A16,16,0,0,0,207.1,256.26Zm0,41.17-3.6,3.72a1.54,1.54,0,0,1-2.22,0,1.66,1.66,0,0,1,0-2.29l3.6-3.72-3.6-3.71c-1.48-1.53.74-3.82,2.22-2.29l3.6,3.71,3.6-3.71a1.52,1.52,0,0,1,2.22,0,1.66,1.66,0,0,1,0,2.29l-3.6,3.71,3.6,3.72c1.48,1.52-.74,3.81-2.22,2.29Zm-5.17-58.52,3.6,3.72,6.74-7a1.54,1.54,0,0,1,2.22,0,1.66,1.66,0,0,1,0,2.29l-7.85,8.1a1.52,1.52,0,0,1-2.22,0l-4.71-4.86a1.66,1.66,0,0,1,0-2.29A1.54,1.54,0,0,1,201.93,238.91Zm38.13-5.33a1.62,1.62,0,0,1,0-3.24h50.23a1.62,1.62,0,0,1,0,3.24Zm0,16.2a1.62,1.62,0,0,1,0-3.24h28.26a1.62,1.62,0,0,1,0,3.24Zm0,38.88a1.62,1.62,0,0,1,0-3.24h50.23a1.62,1.62,0,0,1,0,3.24Zm0,16.2a1.62,1.62,0,0,1,0-3.24h28.26a1.62,1.62,0,0,1,0,3.24Z"/><path class="cls-3" d="M327.34,399.5H172.66a9.52,9.52,0,0,1-9.51-9.51V110a9.52,9.52,0,0,1,9.51-9.51H327.34a9.52,9.52,0,0,1,9.51,9.51V390A9.52,9.52,0,0,1,327.34,399.5ZM172.66,105.68a4.33,4.33,0,0,0-4.32,4.33V390a4.33,4.33,0,0,0,4.32,4.33H327.34a4.33,4.33,0,0,0,4.32-4.33V110a4.33,4.33,0,0,0-4.32-4.33Z"/><path class="cls-3" d="M200.73,178.55q-6.42,0-9.78-3.57t-3.35-10.13a15.66,15.66,0,0,1,1-5.83,12.53,12.53,0,0,1,2.81-4.33,11.81,11.81,0,0,1,4.25-2.67,15.26,15.26,0,0,1,5.35-.91,17.68,17.68,0,0,1,3,.24,22.3,22.3,0,0,1,2.39.57,12.48,12.48,0,0,1,1.71.67c.45.23.78.4,1,.53l-1.71,4.78a14.17,14.17,0,0,0-2.82-1.1,13.69,13.69,0,0,0-3.67-.46,8.15,8.15,0,0,0-2.67.46,6,6,0,0,0-2.32,1.46,7.37,7.37,0,0,0-1.61,2.6,11,11,0,0,0-.61,3.87,14.09,14.09,0,0,0,.4,3.4,7.33,7.33,0,0,0,1.29,2.71,6.27,6.27,0,0,0,2.34,1.81,8.33,8.33,0,0,0,3.49.66,16,16,0,0,0,2.31-.15,16.28,16.28,0,0,0,1.82-.36,9.26,9.26,0,0,0,1.41-.48l1.1-.49,1.63,4.74a13.44,13.44,0,0,1-3.53,1.37A20.74,20.74,0,0,1,200.73,178.55Z"/><path class="cls-3" d="M237.43,164.85a16.21,16.21,0,0,1-1,5.94,12.28,12.28,0,0,1-2.75,4.28,11.2,11.2,0,0,1-4.16,2.6,14.87,14.87,0,0,1-5.18.88,14.51,14.51,0,0,1-5.08-.88,11.52,11.52,0,0,1-4.18-2.6,12.27,12.27,0,0,1-2.81-4.28,16,16,0,0,1-1-5.94,15.33,15.33,0,0,1,1.06-5.94,12.67,12.67,0,0,1,2.87-4.31,11.79,11.79,0,0,1,4.17-2.62,14.39,14.39,0,0,1,5-.87,14.79,14.79,0,0,1,5.09.87,11.62,11.62,0,0,1,4.17,2.62,12.26,12.26,0,0,1,2.81,4.31A15.92,15.92,0,0,1,237.43,164.85Zm-20.08,0a12.18,12.18,0,0,0,.47,3.49,8,8,0,0,0,1.37,2.67,5.92,5.92,0,0,0,2.18,1.73,7.44,7.44,0,0,0,5.9,0,5.94,5.94,0,0,0,2.21-1.73,8,8,0,0,0,1.36-2.67,11.83,11.83,0,0,0,.48-3.49,12,12,0,0,0-.48-3.51,8.16,8.16,0,0,0-1.36-2.7,6.15,6.15,0,0,0-2.21-1.73,7,7,0,0,0-2.94-.6,6.81,6.81,0,0,0-3,.62,6.19,6.19,0,0,0-2.18,1.75,8.12,8.12,0,0,0-1.37,2.69A12.26,12.26,0,0,0,217.35,164.85Z"/><path class="cls-3" d="M249.27,178c-1-2.21-2.08-4.51-3.1-6.88s-2-4.73-2.9-7-1.76-4.56-2.52-6.68-1.44-4-2-5.69h6.53q.74,2.28,1.64,4.91c.61,1.76,1.22,3.51,1.85,5.25s1.22,3.42,1.79,5,1.12,3,1.65,4.14c.49-1.15,1-2.53,1.62-4.12s1.19-3.27,1.82-5,1.23-3.49,1.84-5.25,1.15-3.39,1.64-4.92h6.3c-.59,1.67-1.26,3.57-2,5.69s-1.61,4.35-2.52,6.68-1.87,4.68-2.88,7.06-2,4.67-3.08,6.87Z"/><path class="cls-3" d="M268.81,151.72h5.92V178h-5.92Z"/><path class="cls-3" d="M303.84,164.85a15.31,15.31,0,0,1-1.06,6,11.13,11.13,0,0,1-3,4.22,12.79,12.79,0,0,1-4.76,2.5,21.93,21.93,0,0,1-6.3.84c-1.06,0-2.3-.05-3.72-.14a29,29,0,0,1-4.18-.55V152.06a33.91,33.91,0,0,1,4.27-.52c1.48-.08,2.76-.13,3.82-.13a22.92,22.92,0,0,1,6.13.76,12.53,12.53,0,0,1,4.72,2.39,10.61,10.61,0,0,1,3,4.18A15.76,15.76,0,0,1,303.84,164.85Zm-17.12,8.35,1,.05c.37,0,.81,0,1.31,0,3,0,5.16-.74,6.59-2.24a8.55,8.55,0,0,0,2.14-6.18q0-4.14-2.05-6.27t-6.49-2.12l-1.25,0a11.45,11.45,0,0,0-1.22.09Z"/></svg>