<svg id="Layer_1" data-name="Layer 1" xmlns="http://www.w3.org/2000/svg" viewBox="0 0 500 500"><defs><style>.cls-1,.cls-2{fill:#2d98d4;}.cls-1{opacity:0.2;}</style></defs><path class="cls-1" d="M90,50H450a0,0,0,0,1,0,0V410a40,40,0,0,1-40,40H50a0,0,0,0,1,0,0V90A40,40,0,0,1,90,50Z"/><path class="cls-2" d="M316.8,401.83l-1.41,4.87a9.12,9.12,0,0,1-6.32,6.23,9.13,9.13,0,0,1-6.46,2.67H116.51a9.12,9.12,0,0,1-9.12-9.12V139.56a9.12,9.12,0,0,1,9.12-9.13H177.9l2.52-8.67H106.83a8.34,8.34,0,0,0-8.33,8.35V415.92a8.33,8.33,0,0,0,8.33,8.34H312.65a8.34,8.34,0,0,0,8-8.33V388.69Z"/><path class="cls-2" d="M125.91,208.22h26.91l-3.54,11H125.91c-2.15,0-3.91-2.46-3.91-5.49a6.73,6.73,0,0,1,1.15-3.89A3.47,3.47,0,0,1,125.91,208.22Z"/><path class="cls-2" d="M133.71,267.64l-3.55,11h-4.25c-2.15,0-3.91-2.46-3.91-5.5a6.77,6.77,0,0,1,1.15-3.88,3.46,3.46,0,0,1,2.76-1.61Z"/><path class="cls-2" d="M143.05,238.6l-3.53,11H125.91c-2.15,0-3.91-2.45-3.91-5.48a6.68,6.68,0,0,1,1.15-3.88,3.46,3.46,0,0,1,2.76-1.61Z"/><path class="cls-2" d="M395.49,133.49,198.23,76.06a8.35,8.35,0,0,0-10.34,5.68l-11.66,40-2.52,8.67L112.45,340.85,108,356.16a8.36,8.36,0,0,0,4.46,9.88,7.27,7.27,0,0,0,1.23.47L282.33,415.6l28.61,8.33a7.81,7.81,0,0,0,1.71.32H313a3.42,3.42,0,0,0,.64,0,8.34,8.34,0,0,0,7.66-6l4.4-15.14,75.47-259.28A8.33,8.33,0,0,0,395.49,133.49ZM390,150.41,325.69,371.3l-5.06,17.39-3.83,13.14-1.41,4.87a9.16,9.16,0,0,1-11.32,6.21l-178.68-52a9.14,9.14,0,0,1-6.22-11.3L183,130.43l2.52-8.67,8.29-28.47a9.14,9.14,0,0,1,11.32-6.2l178.68,52A9.11,9.11,0,0,1,390,150.41Z"/><path class="cls-2" d="M321.11,170.47c-.66,2.26-2.39,3.71-4.31,3.57a3.56,3.56,0,0,1-.76-.13l-72.47-21.09c-2.2-.65-3.16-3.16-2.42-5.7a4.63,4.63,0,0,1,4.14-3.67,3.36,3.36,0,0,1,1,.14l70.53,20.54,1.93.56C320.94,165.32,321.84,167.93,321.11,170.47Z"/><path class="cls-2" d="M357.43,163.85c-.74,2.55-4.08,3.73-8,2.57l-23.71-6.89-8.89-2.6-91-26.5-6.3-1.83c-3.95-1.15-6.15-4-5.41-6.56,0-.09.07-.19.09-.28.66-1.74,2.62-2.82,5.14-2.82a10.29,10.29,0,0,1,2.86.43l8.22,2.39,29.79,8.67,56.64,16.5,8.89,2.58,26.4,7.69C356.05,158.35,358.17,161.31,357.43,163.85Z"/><path class="cls-2" d="M301.48,231.84h0c-.85,2.91-3.21,4.79-5.28,4.18L180.33,202.29c-2.07-.6-3.06-3.45-2.21-6.36h0c.84-2.91,3.21-4.78,5.28-4.18l115.87,33.73C301.34,226.08,302.33,228.93,301.48,231.84Z"/><path class="cls-2" d="M284.87,288.9h0c-.84,2.91-3.21,4.78-5.28,4.18L163.72,259.35c-2.07-.6-3.06-3.45-2.21-6.36h0c.85-2.92,3.21-4.79,5.28-4.19l115.87,33.73C284.73,283.14,285.72,286,284.87,288.9Z"/><path class="cls-2" d="M276.08,319.1h0c-.85,2.91-3.21,4.79-5.28,4.18L154.93,289.55c-2.07-.6-3.06-3.45-2.21-6.36h0c.84-2.91,3.21-4.79,5.28-4.18l115.87,33.73C275.94,313.34,276.93,316.19,276.08,319.1Z"/><path class="cls-2" d="M267.61,348.19h0c-.84,2.91-3.21,4.78-5.28,4.18L146.46,318.64c-2.07-.6-3.06-3.45-2.21-6.36h0c.85-2.92,3.21-4.79,5.28-4.19L265.4,341.82C267.47,342.43,268.46,345.28,267.61,348.19Z"/><path class="cls-2" d="M293,261h0c-.85,2.91-3.21,4.78-5.28,4.18L171.84,231.46c-2.07-.6-3.06-3.45-2.21-6.36h0c.84-2.92,3.21-4.79,5.28-4.19l115.87,33.73C292.85,255.25,293.84,258.1,293,261Z"/><path class="cls-2" d="M305.42,347.47l-9.69-2.82a6.21,6.21,0,0,0-7.69,4.22l-2.82,9.7a6.19,6.19,0,0,0,4.22,7.69l9.69,2.82a6.21,6.21,0,0,0,7.69-4.21l2.82-9.71A6.2,6.2,0,0,0,305.42,347.47Zm.76,8.37-1.92,6.58a4.68,4.68,0,0,1-5.8,3.19l-6.59-1.91a4.69,4.69,0,0,1-3.18-5.81l1.91-6.58a4.68,4.68,0,0,1,5.8-3.19L303,350A4.68,4.68,0,0,1,306.18,355.84Z"/><path class="cls-2" d="M339.3,231.14l-9.71-2.83a6,6,0,0,0-3.9.16,6.14,6.14,0,0,0-3.78,4.06l-2.83,9.7a6.21,6.21,0,0,0,4.22,7.68l2.39.7,7.32,2.12a6.18,6.18,0,0,0,7.68-4.21l2.82-9.71A6.19,6.19,0,0,0,339.3,231.14Zm.75,8.35-1.93,6.6a4.66,4.66,0,0,1-5.8,3.17l-6.58-1.91h-.05a4.68,4.68,0,0,1-3.14-5.78l1.93-6.6a4.54,4.54,0,0,1,1.21-2,4.68,4.68,0,0,1,4.58-1.15l6.59,1.92A4.69,4.69,0,0,1,340.05,239.49Z"/><path class="cls-2" d="M325.69,291.7a6.14,6.14,0,0,0-3.33-2.4l-5.56-1.62-4.15-1.2A6.19,6.19,0,0,0,305,290.7l-2.82,9.71a6.17,6.17,0,0,0,4.21,7.67l9.7,2.82c.24.06.49.13.73.17a6.18,6.18,0,0,0,6.95-4.38l1.94-6.66.89-3A6.17,6.17,0,0,0,325.69,291.7Zm-2.58,6-1.91,6.59a4.73,4.73,0,0,1-4.4,3.38,5.26,5.26,0,0,1-1.41-.19l-6.59-1.93a4.68,4.68,0,0,1-3.19-5.8l1.93-6.59a4.67,4.67,0,0,1,5.8-3.18l3.46,1,3.13.91A4.69,4.69,0,0,1,323.11,297.67Z"/><path class="cls-2" d="M316.8,320.24a6.13,6.13,0,0,0-2.91-1.84l-9.69-2.83a6.19,6.19,0,0,0-7.69,4.22l-2.82,9.69a6.19,6.19,0,0,0,4.21,7.69l9.7,2.82a6.19,6.19,0,0,0,7.69-4.21l1.51-5.22,1.31-4.48A6.16,6.16,0,0,0,316.8,320.24Zm-2.16,6.51-1.91,6.6a4.67,4.67,0,0,1-5.8,3.17l-6.59-1.91a4.68,4.68,0,0,1-3.2-5.8l1.93-6.59a4.68,4.68,0,0,1,5.8-3.19l6.59,1.92A4.68,4.68,0,0,1,314.64,326.75Z"/><path class="cls-2" d="M330.83,260.21l-5.14-1.49-4.57-1.33a6.22,6.22,0,0,0-7.67,4.22l-2.84,9.71a6.21,6.21,0,0,0,4.23,7.68l2,.57,7.74,2.25a6,6,0,0,0,1.15.22,6.2,6.2,0,0,0,6.53-4.43l2.83-9.71A6.23,6.23,0,0,0,330.83,260.21Zm.75,8.37-1.91,6.58a4.7,4.7,0,0,1-4,3.35,4.61,4.61,0,0,1-1.83-.16l-6.59-1.92-.47-.16a4.69,4.69,0,0,1-2.72-5.64l1.93-6.58a4.6,4.6,0,0,1,.79-1.56,4.65,4.65,0,0,1,5-1.63l3.89,1.14,2.71.78A4.68,4.68,0,0,1,331.58,268.58Z"/></svg>