<svg id="Layer_1" data-name="Layer 1" xmlns="http://www.w3.org/2000/svg" viewBox="0 0 500 500"><defs><style>.cls-1,.cls-2{fill:#2d98d4;}.cls-1{opacity:0.2;}.cls-2{fill-rule:evenodd;}</style></defs><path class="cls-1" d="M90,50H450a0,0,0,0,1,0,0V410a40,40,0,0,1-40,40H50a0,0,0,0,1,0,0V90A40,40,0,0,1,90,50Z"/><path class="cls-2" d="M187.37,389.56c-19.77,0-35.79-16.54-35.79-36.94s16-36.93,35.79-36.93,35.79,16.53,35.79,36.93S207.14,389.56,187.37,389.56Zm0-6.16c16.47,0,29.82-13.78,29.82-30.78s-13.35-30.78-29.82-30.78-29.82,13.78-29.82,30.78S170.9,383.4,187.37,383.4Zm-9.82-32.95,6.84,7.06,12.8-13.22a2.92,2.92,0,0,1,4.22,0,3.15,3.15,0,0,1,0,4.35L186.5,364a2.91,2.91,0,0,1-4.22,0l-8.95-9.23a3.15,3.15,0,0,1,0-4.35A2.92,2.92,0,0,1,177.55,350.45ZM250,340.31a3.08,3.08,0,0,1,0-6.15h95.44a3.08,3.08,0,0,1,0,6.15Zm0,30.78a3.08,3.08,0,0,1,0-6.15h53.68a3.08,3.08,0,0,1,0,6.15Z"/><path class="cls-2" d="M187.37,289c-19.77,0-35.79-16.54-35.79-36.94s16-36.94,35.79-36.94,35.79,16.54,35.79,36.94S207.14,289,187.37,289Zm0-6.16c16.47,0,29.82-13.78,29.82-30.78s-13.35-30.78-29.82-30.78S157.55,235,157.55,252,170.9,282.81,187.37,282.81Zm0-98.5c-19.77,0-35.79-16.53-35.79-36.93s16-36.94,35.79-36.94,35.79,16.54,35.79,36.94S207.14,184.31,187.37,184.31Zm0-6.15c16.47,0,29.82-13.78,29.82-30.78s-13.35-30.78-29.82-30.78-29.82,13.78-29.82,30.78S170.9,178.16,187.37,178.16Zm0,78.22-6.84,7.06a2.92,2.92,0,0,1-4.22,0,3.15,3.15,0,0,1,0-4.35l6.84-7.06L176.31,245c-2.81-2.9,1.41-7.25,4.22-4.35l6.84,7.06,6.84-7.06a2.92,2.92,0,0,1,4.22,0,3.15,3.15,0,0,1,0,4.35L191.59,252l6.84,7.06c2.81,2.9-1.41,7.25-4.22,4.35ZM177.55,145.2l6.84,7.06L197.19,139a2.92,2.92,0,0,1,4.22,0,3.17,3.17,0,0,1,0,4.36L186.5,158.79a2.92,2.92,0,0,1-4.22,0l-8.95-9.24a3.15,3.15,0,0,1,0-4.35A2.92,2.92,0,0,1,177.55,145.2ZM250,135.06a3.08,3.08,0,0,1,0-6.15h95.44a3.08,3.08,0,0,1,0,6.15Zm0,30.78a3.08,3.08,0,0,1,0-6.15h53.68a3.08,3.08,0,0,1,0,6.15Zm0,73.88a3.08,3.08,0,0,1,0-6.16h95.44a3.08,3.08,0,0,1,0,6.16Zm0,30.78a3.08,3.08,0,0,1,0-6.16h53.68a3.08,3.08,0,0,1,0,6.16Z"/></svg>