<svg id="Layer_1" data-name="Layer 1" xmlns="http://www.w3.org/2000/svg" viewBox="0 0 500 500"><defs><style>.cls-1,.cls-2{fill:#2d98d4;}.cls-1{opacity:0.2;}</style></defs><path class="cls-1" d="M90,50H450a0,0,0,0,1,0,0V410a40,40,0,0,1-40,40H50a0,0,0,0,1,0,0V90A40,40,0,0,1,90,50Z"/><path class="cls-2" d="M404.79,145H95.21a10,10,0,0,0-10,10V345.09a9.78,9.78,0,0,0,1.35,5,9.92,9.92,0,0,0,8.61,4.95h4.21a6.05,6.05,0,0,1,1.66-.24H398.65a5.93,5.93,0,0,1,1.65.24h4.49a9.92,9.92,0,0,0,8.49-4.78,9.81,9.81,0,0,0,1.47-5.18V154.91A10,10,0,0,0,404.79,145ZM95.42,160.24a5.79,5.79,0,0,1,5.78-5.78H398.77a5.79,5.79,0,0,1,5.8,5.78v170a5.78,5.78,0,0,1-5.8,5.75H101.2a5.78,5.78,0,0,1-5.78-5.75ZM374.81,347.82a4.84,4.84,0,0,1-8.18-2.52,5.4,5.4,0,0,1-.08-.91,4.85,4.85,0,0,1,4.85-4.85,4.73,4.73,0,0,1,3.41,1.43,4.81,4.81,0,0,1,1.44,3.42,5.4,5.4,0,0,1-.09.91A4.78,4.78,0,0,1,374.81,347.82Zm18.54,0a4.86,4.86,0,0,1-8.2-2.52,5.4,5.4,0,0,1-.08-.91,4.85,4.85,0,0,1,4.85-4.85,4.85,4.85,0,0,1,4.84,4.85,5.4,5.4,0,0,1-.08.91A4.69,4.69,0,0,1,393.35,347.82Z"/><path class="cls-2" d="M350.19,219.34l0,0-1.06-2.45-.09-.16h0a36.64,36.64,0,0,0-5.21-8l.07,0-2.07-2.16-.1-.1h0a37,37,0,0,0-8.84-6.57l.19-.09-3.57-1.51-.08,0h0a36.87,36.87,0,0,0-13.9-2.7h-1.44v8.22a30.35,30.35,0,1,0,30.48,30.35v0h8.05v-1.44A36.79,36.79,0,0,0,350.19,219.34ZM317,216.79V206.55l12.44-5.24a33.6,33.6,0,0,1,9.43,6.27Zm24-7a33.88,33.88,0,0,1,5.37,8L317,230.16V219.92Zm6.51,10.63a34.1,34.1,0,0,1,2.21,10.72H322.06Zm-30.54-17v-5a33.92,33.92,0,0,1,8.51,1.44ZM341.71,234v0a27.47,27.47,0,1,1-27.6-27.47V234Z"/><rect class="cls-2" x="318.74" y="265.11" width="5.01" height="68.94" rx="0.6" transform="translate(620.83 -21.67) rotate(90)"/><rect class="cls-2" x="318.74" y="247.85" width="5.01" height="68.94" rx="0.6" transform="translate(603.58 -38.92) rotate(90)"/><rect class="cls-2" x="254.75" y="201.04" width="5.01" height="103.46" rx="0.6" transform="translate(514.51 505.55) rotate(-180)"/><rect class="cls-2" x="217.93" y="236.9" width="5.01" height="67.61" rx="0.6" transform="translate(440.86 541.4) rotate(-180)"/><rect class="cls-2" x="162.69" y="259.01" width="5.01" height="44.77" rx="0.6" transform="translate(330.39 562.79) rotate(180)"/><rect class="cls-2" x="199.51" y="245.37" width="5.01" height="59.14" rx="0.6" transform="translate(404.04 549.87) rotate(180)"/><rect class="cls-2" x="236.34" y="222.57" width="5.01" height="81.94" rx="0.6" transform="translate(477.69 527.08) rotate(180)"/><rect class="cls-2" x="181.1" y="224.87" width="5.01" height="79.64" rx="0.6" transform="translate(367.22 529.37) rotate(-180)"/><rect class="cls-2" x="144.28" y="248.71" width="5.01" height="55.8" rx="0.6" transform="translate(293.57 553.21) rotate(-180)"/></svg>