<svg id="Layer_1" data-name="Layer 1" xmlns="http://www.w3.org/2000/svg" viewBox="0 0 500 500"><defs><style>.cls-1,.cls-2{fill:#2d98d4;}.cls-1{opacity:0.2;}</style></defs><path class="cls-1" d="M90,50H450a0,0,0,0,1,0,0V410a40,40,0,0,1-40,40H50a0,0,0,0,1,0,0V90A40,40,0,0,1,90,50Z"/><path class="cls-2" d="M378.34,191.42l-91.49,40.46-.32-40.46L169.44,243.21,157.6,123.1H131.09l-9.93,134.26,0,119.54H378.86V258.32h0ZM152.28,128.79,164,247.73l0,.25,3.88,2.17,112.84-49.92.29,36.36,3.91,2.4,87.61-38.76.46,57.64V371.21H127V258l9.55-129.18Z"/><path class="cls-2" d="M206.39,299.49h-63.7V337.7h63.7Zm-4.9,33.32h-53.9V304.39h53.9Z"/><path class="cls-2" d="M359.26,299.49H295.57V337.7h63.69Zm-4.9,33.32H300.47V304.39h53.89Z"/><path class="cls-2" d="M282.83,299.49h-63.7V337.7h63.7Zm-4.9,33.32H224V304.39h53.9Z"/></svg>