<svg id="Layer_1" data-name="Layer 1" xmlns="http://www.w3.org/2000/svg" viewBox="0 0 500 500"><defs><style>.cls-1,.cls-2{fill:#0f6788;}.cls-1{opacity:0.19;}</style></defs><circle class="cls-1" cx="250" cy="250" r="167.19"/><path class="cls-2" d="M250,50C139.54,50,50,139.54,50,250s89.54,200,200,200,200-89.53,200-200S360.47,50,250,50Zm0,385.49C147.55,435.49,64.51,352.44,64.51,250A185.48,185.48,0,0,1,250,64.51c102.44,0,185.49,83,185.49,185.49S352.44,435.49,250,435.49Z"/><path class="cls-2" d="M362.82,177.67H292.55V160.75a8.62,8.62,0,0,0-8.61-8.6H216.06a8.62,8.62,0,0,0-8.61,8.6v16.92H139.14a11.83,11.83,0,0,0-11.81,11.81V336a11.82,11.82,0,0,0,11.81,11.81H360.86A11.82,11.82,0,0,0,372.67,336V187.52A9.86,9.86,0,0,0,362.82,177.67ZM214.55,160.75a1.52,1.52,0,0,1,1.51-1.51h67.88a1.52,1.52,0,0,1,1.51,1.51v16.92h-70.9ZM365.58,336a4.72,4.72,0,0,1-4.72,4.72H139.14a4.72,4.72,0,0,1-4.72-4.72V189.48a4.73,4.73,0,0,1,4.72-4.72H362.82a2.77,2.77,0,0,1,2.76,2.76Z"/><path class="cls-2" d="M319.17,222.07h0a1.18,1.18,0,0,0-.42-.82,1.19,1.19,0,0,0-.89-.26l-28,3.42a1.16,1.16,0,0,0-1,1.53L290,229.3a1.16,1.16,0,0,0,1.25.79l18.34-2.28c-5.82,7.14-32.55,39.92-35.94,44.05-5.48-2.62-54.3-25.87-58.77-28a1.16,1.16,0,0,0-1.42.35L159,314.48a1.18,1.18,0,0,0,.21,1.64l2.83,2.19a1.12,1.12,0,0,0,.71.25,1.17,1.17,0,0,0,.93-.46l52.11-67.19c5.79,2.62,58.19,27.64,58.72,27.89a1.16,1.16,0,0,0,1.4-.31c3-3.61,34.38-42.13,38.29-46.93l1.41,18.78a1.18,1.18,0,0,0,1.17,1.08h3.33a1.2,1.2,0,0,0,.86-.38,1.17,1.17,0,0,0,.31-.88Z"/></svg>