<svg id="Layer_1" data-name="Layer 1" xmlns="http://www.w3.org/2000/svg" viewBox="0 0 500 500"><defs><style>.cls-1,.cls-2{fill:#2d98d4;}.cls-1{opacity:0.2;}</style></defs><path class="cls-1" d="M90,50H450a0,0,0,0,1,0,0V410a40,40,0,0,1-40,40H50a0,0,0,0,1,0,0V90A40,40,0,0,1,90,50Z"/><path class="cls-2" d="M368,246H296a4,4,0,0,0-1.36.21,3.78,3.78,0,0,0-2.73,3.88,3.82,3.82,0,0,0,2.25,3.72,4.26,4.26,0,0,0,1.84.38h72a3.87,3.87,0,0,0,4.08-4.1A4.1,4.1,0,0,0,368,246Z"/><path class="cls-2" d="M391.31,175.64H365.12v-4.09a3.87,3.87,0,0,0-4.09-4.1H345.89v-3.27A13.77,13.77,0,0,0,332,150.27a14.13,14.13,0,0,0-14.31,13.91v3.27h-10.6V89.61A3.62,3.62,0,0,0,303.44,86H133.1a3.61,3.61,0,0,0-3.61,3.61V246.22H108.23a3.63,3.63,0,0,0-3.63,3.63V410.39a3.63,3.63,0,0,0,3.63,3.61h220.1a3.61,3.61,0,0,0,3.61-3.61V342.1h22.58v0h36.79a3.86,3.86,0,0,0,4.09-4.1V179.71A3.86,3.86,0,0,0,391.31,175.64Zm-69.55,0a3.87,3.87,0,0,0,4.09-4.09v-7.37a5.94,5.94,0,0,1,6.13-5.73,5.6,5.6,0,0,1,5.73,5.73v7.37a3.87,3.87,0,0,0,4.09,4.09h15.13v11.44H306.6V175.64h15.16ZM245.49,93.58H300V120.8H245.49Zm-46.2,0h38v48.67l-16.08-16.92a4.55,4.55,0,0,0-2.89-1.24,3.74,3.74,0,0,0-2.88,1.24l-16.1,16.92Zm-62.69,0H191V120.8H136.6Zm0,35.47H191v23.5a4.19,4.19,0,0,0,2.48,3.72,3.75,3.75,0,0,0,4.53-.82L218.27,134l20.21,21.45a3.76,3.76,0,0,0,4.53.82,4,4,0,0,0,2.48-3.72v-23.5H300v39.22a4,4,0,0,0-1.51,3.28v3.67H272.25a3.84,3.84,0,0,0-3.78,2.37V246.2H136.6ZM268.47,281H253.13V253.8h15.34Zm-25.9-27.22v48.67L222,285.55a6.66,6.66,0,0,0-3.69-1.21,5.6,5.6,0,0,0-3.7,1.21L194,302.47V253.8Zm-128.85,0h69.71V281H113.72ZM322.83,406.42H113.72V289.27h69.71V312.8a4.34,4.34,0,0,0,3.16,3.71,5.81,5.81,0,0,0,5.8-.84l25.88-21.45,25.87,21.45a5.85,5.85,0,0,0,5.82.84c2.1-.84,3.17-2.08,3.17-3.71V289.27h15.34v51.42a4.48,4.48,0,0,0,.63,1.41h53.73ZM387.22,334H276.34V183.8h22.1v7.79a3.92,3.92,0,0,0,1.51,3.27,4.08,4.08,0,0,0,2.58.82H361a3.86,3.86,0,0,0,4.09-4.09V183.8h22.1Z"/><path class="cls-2" d="M368,275.46H296a3.86,3.86,0,0,0-4.09,4.07,4.35,4.35,0,0,0,.25,1.49,3.77,3.77,0,0,0,3.84,2.6h72a3.86,3.86,0,0,0,4.08-4.09A4.09,4.09,0,0,0,368,275.46Z"/><path class="cls-2" d="M368,304.51H296a4.09,4.09,0,0,0,0,8.18h72a3.87,3.87,0,0,0,4.08-4.09A4.38,4.38,0,0,0,368,304.51Z"/><path class="cls-2" d="M300,216.94h-4a4.1,4.1,0,0,0,0,8.19h72a4.1,4.1,0,0,0,0-8.19H300Z"/></svg>