<svg id="Layer_1" data-name="Layer 1" xmlns="http://www.w3.org/2000/svg" viewBox="0 0 500 500"><defs><style>.cls-1,.cls-2{fill:#a8a8a8;}.cls-1{opacity:0.19;}</style></defs><circle class="cls-1" cx="250" cy="250" r="167.19"/><path class="cls-2" d="M250,50C139.54,50,50,139.54,50,250s89.54,200,200,200,200-89.53,200-200S360.47,50,250,50Zm0,385.49C147.55,435.49,64.51,352.44,64.51,250A185.48,185.48,0,0,1,250,64.51c102.44,0,185.49,83,185.49,185.49S352.44,435.49,250,435.49Z"/><path class="cls-2" d="M353.9,171.55l-8.5-1.6-.1,0L328,151.25l-.05-.05-.05.05H302.44l-30.21-24-8.48,1.7-.1,0-23.06-10.8-.07,0,0,.07L125.59,164.89a5.76,5.76,0,0,0-3.18,7.5l73.87,182,.39,1a11.42,11.42,0,0,0,7.2,4.88h16.51l122.25,21.55a5.75,5.75,0,0,0,6.66-4.67L378,214.23ZM310,157.23h10.44l-6.72,5.4-1.89,1.52-4.22-.75-2.4-.42-27.41-4.84-1.4-.24-2.06-.37-1.72-.3H310Zm-74.15-30.64-5.38,9.65-38.93,8.34ZM130.57,176.12a6.28,6.28,0,0,1,3.47-8.21l20.1-8.16,5.2,24.25-3.18,1.29a4,4,0,1,0,3,7.41L161,192,188,317.49ZM196.28,327,166.84,189.59l-1.71-7.94-3.87-18a6.31,6.31,0,0,1,4.84-7.48l60.46-13,9.17-2,30.35-6.5,3.83-.82,3.23,17.35H203.87a5.76,5.76,0,0,0-5.76,5.75V335.54Zm28.25-137.37h2L204.25,316.1V163.53a6.31,6.31,0,0,1,6.32-6.3h21.69L228,181.65h-3.43a4,4,0,1,0,0,8ZM346,360.18l-1.65,9.39a6.3,6.3,0,0,1-7.3,5.11l-82.22-14.49-34-6-4.61-.81-5.81-1a6.33,6.33,0,0,1-5.07-4.9,6.24,6.24,0,0,1,0-2.4l27.4-155.42,1.41-8,3.2-18.14a6.3,6.3,0,0,1,7.3-5.12l32.85,5.79,11.14,2,16.91,3,3.34.59,5.88,1,.64.11,29.94,5.28,3.86.69-7.16,35,29.08,5.77L351.55,329Z"/><path class="cls-2" d="M351.55,224.85h0l-6.13-1.08-19.33-3.4-6.51-1.16-38.17-6.72-27.17-4.79a4.38,4.38,0,0,0-.71-.07,4,4,0,0,0-.69,8l17.93,3.16L311,225.84l10.38,1.83,6.53,1.16,17.51,3.09,4.74.83a4.25,4.25,0,0,0,.69.07,4.39,4.39,0,0,0,.72-.07,4,4,0,0,0,3.23-3.25A4,4,0,0,0,351.55,224.85Z"/><path class="cls-2" d="M341.5,274.07h0L335.35,273l-64-11.28-27.18-4.79a4,4,0,0,0-.7-.06,4,4,0,0,0-.69,7.95L260.7,268l40.23,7.09,34.42,6.08,4.74.83a3.58,3.58,0,0,0,1.41,0,4,4,0,0,0,0-7.9Z"/><path class="cls-2" d="M337.84,295.09h0L331.7,294l-64-11.29-27.17-4.79a4.14,4.14,0,0,0-.7-.06,4,4,0,0,0-3.93,3.3,4.24,4.24,0,0,0,0,1.55,4,4,0,0,0,3.22,3.1L257.05,289l40.23,7.1,34.42,6.07,4.74.84a5.36,5.36,0,0,0,.69.06,5.51,5.51,0,0,0,.71-.06,4.07,4.07,0,0,0,3.24-3.26A4,4,0,0,0,337.84,295.09Z"/><path class="cls-2" d="M334.19,316.1h0L328.05,315l-64-11.29L236.86,299a4.27,4.27,0,0,0-.71-.07,4,4,0,0,0-.69,7.95L253.4,310l40.22,7.1,34.43,6.07,4.73.84a4.2,4.2,0,0,0,.69.06,4.28,4.28,0,0,0,.72-.06,4.06,4.06,0,0,0,3.24-3.26A4,4,0,0,0,334.19,316.1Z"/><path class="cls-2" d="M330.54,337.11h0L324.39,336l-17.32-3-15.68-2.77h0l-31-5.46L233.21,320a5.83,5.83,0,0,0-.71-.06,4,4,0,0,0-3.94,3.31,4.23,4.23,0,0,0,0,1.55,4,4,0,0,0,3.22,3.1L249.74,331l20.83,3.67,15.67,2.76h0l3.71.66,34.43,6.08,4.74.83a4.24,4.24,0,0,0,.68.07,4.4,4.4,0,0,0,.73-.07,4.06,4.06,0,0,0,3.23-3.25A4,4,0,0,0,330.54,337.11Z"/><path class="cls-2" d="M333,247a5.68,5.68,0,0,0,.69.06,4,4,0,0,0,.71-8l-54.21-9.56-13.73-2.42a4.25,4.25,0,0,0-.71-.06,4,4,0,0,0-3.69,2.48,3.86,3.86,0,0,0-.24.82A4,4,0,0,0,265,235Z"/></svg>