<svg id="Layer_1" data-name="Layer 1" xmlns="http://www.w3.org/2000/svg" viewBox="0 0 500 500"><defs><style>.cls-1,.cls-2{fill:#0f6788;}.cls-1{opacity:0.19;}</style></defs><circle class="cls-1" cx="250" cy="250" r="167.19"/><path class="cls-2" d="M250,50C139.54,50,50,139.54,50,250s89.54,200,200,200,200-89.53,200-200S360.47,50,250,50Zm0,385.49C147.55,435.49,64.51,352.44,64.51,250A185.48,185.48,0,0,1,250,64.51c102.44,0,185.49,83,185.49,185.49S352.44,435.49,250,435.49Z"/><path class="cls-2" d="M280.57,170.28a1.28,1.28,0,0,0-1-.29l-11.12,1.36a1.3,1.3,0,0,0-1,.59,1.36,1.36,0,0,0-.14,1.13l.45,1.33a1.31,1.31,0,0,0,1.41.89l5.17-.64c-3.35,4.11-10.45,12.82-12.5,15.32-3.93-1.88-21.07-10-22.73-10.82a1.3,1.3,0,0,0-1.6.38l-21.63,27.9a1.25,1.25,0,0,0-.26,1,1.33,1.33,0,0,0,.49.88l1.14.88a1.31,1.31,0,0,0,.79.26,1.29,1.29,0,0,0,1-.51l20.27-26.14c1.76.82,7.09,3.34,21.94,10.43l.75.36a1.32,1.32,0,0,0,1.58-.35L276.08,179l1.43-1.76.4,5.33a1.32,1.32,0,0,0,1.31,1.21h1.33a1.32,1.32,0,0,0,1.31-1.41L281,171.2A1.33,1.33,0,0,0,280.57,170.28Z"/><path class="cls-2" d="M216.93,324.83v-59a4.76,4.76,0,0,0-4.76-4.76h-27v-5.86a4.27,4.27,0,0,0-4.27-4.27H153.92a4.27,4.27,0,0,0-4.27,4.27v5.86H123.38a5.55,5.55,0,0,0-5.54,5.54v58.18a5.55,5.55,0,0,0,5.54,5.54h88A5.54,5.54,0,0,0,216.93,324.83Zm-62.76-63.72V255.5h26.44v5.61Zm58.25,4.76v59a1,1,0,0,1-1,1h-88a1,1,0,0,1-1-1V266.65a1,1,0,0,1,1-1h88.79A.25.25,0,0,1,212.42,265.87Z"/><path class="cls-2" d="M195.22,278.6a1.32,1.32,0,0,0-1-.29l-11.12,1.36a1.32,1.32,0,0,0-1.1,1.72l.45,1.34a1.29,1.29,0,0,0,1.41.89L189,283l-.23.29-12.27,15L153.8,287.47a1.32,1.32,0,0,0-1.6.39l-21.63,27.89a1.34,1.34,0,0,0-.26,1,1.22,1.22,0,0,0,.5.86l1.12.87h0a1.3,1.3,0,0,0,1.84-.23l20.28-26.14c4.13,1.93,22.52,10.71,22.69,10.79a1.32,1.32,0,0,0,1.57-.36c1-1.16,9.4-11.51,13.34-16.35l.52-.62.39,5.32a1.34,1.34,0,0,0,1.32,1.22h1.32a1.32,1.32,0,0,0,1.31-1.41l-.82-11.15A1.32,1.32,0,0,0,195.22,278.6Z"/><path class="cls-2" d="M377.4,260h-27v-5.87a4.27,4.27,0,0,0-4.27-4.27H319.14a4.28,4.28,0,0,0-4.27,4.27V260H288.6a5.54,5.54,0,0,0-5.53,5.54v58.18a5.54,5.54,0,0,0,5.53,5.53h88a5.54,5.54,0,0,0,5.54-5.53v-59A4.76,4.76,0,0,0,377.4,260Zm-58,0V254.4h26.44V260Zm58.25,4.76v59a1,1,0,0,1-1,1h-88a1,1,0,0,1-1-1V265.56a1,1,0,0,1,1-1h88.8A.25.25,0,0,1,377.64,264.78Z"/><path class="cls-2" d="M360.92,278.43a1.31,1.31,0,0,0-.48-.92,1.27,1.27,0,0,0-1-.29l-11.13,1.36a1.3,1.3,0,0,0-1,.6,1.37,1.37,0,0,0-.13,1.12l.44,1.33a1.3,1.3,0,0,0,1.42.89l5.17-.64L353,283.42,341.76,297.2c-3.93-1.88-21.07-10-22.74-10.82a1.3,1.3,0,0,0-1.59.38l-21.64,27.9a1.31,1.31,0,0,0,.24,1.84l1.12.87a1.34,1.34,0,0,0,1.85-.23L319.27,291c3.86,1.8,20.24,9.61,22.69,10.79a1.32,1.32,0,0,0,1.57-.36c.77-.93,6.3-7.72,10.51-12.88l3.35-4.1.4,5.33A1.32,1.32,0,0,0,359.1,291h1.32a1.31,1.31,0,0,0,1-.41,1.29,1.29,0,0,0,.35-1l-.81-11.15Zm-.5,0Z"/><path class="cls-2" d="M306.69,203.5c15.11,11.67,23.93,24.9,27.75,41.63l.11.49,4.18-1-.12-.49c-4.05-17.76-13.36-31.76-29.29-44.06-.85-.67-1.8-1.37-2.9-2.16l-.41-.29-2.48,3.49.41.29C305,202.19,305.88,202.86,306.69,203.5Z"/><path class="cls-2" d="M176.68,249.48c3.93-18.4,11.37-30,26.51-41.38v8.4a5.54,5.54,0,0,0,5.54,5.54h88a5.54,5.54,0,0,0,5.54-5.54V157.55a4.76,4.76,0,0,0-4.76-4.76h-27v-5.87a4.27,4.27,0,0,0-4.26-4.27H239.26a4.27,4.27,0,0,0-4.26,4.27v5.87H208.73a5.54,5.54,0,0,0-5.54,5.53v48.87l-2.14-2.85-.4.3c-16.09,12.09-24,24.41-28.16,43.94l-.1.49,4.18.9Zm62.83-96.69v-5.62H266v5.62Zm58.25,63.71a1,1,0,0,1-1,1h-88a1,1,0,0,1-1-1V158.32a1,1,0,0,1,1-1h88.79a.24.24,0,0,1,.24.25Z"/><path class="cls-2" d="M303.83,331.18c-.85.84-1.78,1.72-2.76,2.61a74.78,74.78,0,0,1-99.08,1c-.93-.81-1.89-1.69-2.87-2.62l-.36-.35-3,3.1.36.34c1,1,2,1.91,3,2.76A79.05,79.05,0,0,0,303.94,337c1-.92,2-1.85,2.92-2.77l.35-.35-3-3Z"/></svg>