<svg id="Layer_1" data-name="Layer 1" xmlns="http://www.w3.org/2000/svg" viewBox="0 0 500 500"><defs><style>.cls-1,.cls-2{fill:white;}.cls-1{opacity:0;}</style></defs><path class="cls-1" d="M90,50H450a0,0,0,0,1,0,0V410a40,40,0,0,1-40,40H50a0,0,0,0,1,0,0V90A40,40,0,0,1,90,50Z"/><path class="cls-2" d="M412.6,327.86c-1.71-28.68-21.38-53.27-48.11-60.52a31.25,31.25,0,1,0-32.48-.08,62.88,62.88,0,0,0-19.48,9c-5.66-23.65-23.62-42.46-46.34-48.61a31.25,31.25,0,1,0-32.48-.08c-22.82,6.11-40.86,25-46.54,48.72a62.2,62.2,0,0,0-19.28-9,31.26,31.26,0,1,0-32.48-.08c-25.5,6.82-44.66,29.27-48,56.49l-.09.74.73.15c1.63.34,3.07.69,4.41,1.06l.91.25.11-.94c3.25-28.82,25.76-51.3,53.54-53.48a31.09,31.09,0,0,0,9.15,0,56.73,56.73,0,0,1,30.08,11.74c.81.62,1.63,1.29,2.59,2.13a61.86,61.86,0,0,1,21,43.73l.05,1.11,1-.4a22.18,22.18,0,0,1,4.31-1.16l.72-.12,0-.73a67.71,67.71,0,0,0-23.43-47.41c5.13-26.6,26.76-46.55,52.78-48.6a31.09,31.09,0,0,0,9.15,0c25.91,2.1,47.49,22,52.63,48.55a67.43,67.43,0,0,0-23.08,43.32l-.09.74.73.15c1.63.34,3.07.69,4.4,1.06l.91.25.11-.94a61.51,61.51,0,0,1,19.2-38.28c1.42-1.3,2.77-2.44,4.12-3.49a56.75,56.75,0,0,1,30.23-11.71,31,31,0,0,0,9.14,0c29.19,2.38,52.28,27.12,53.71,57.6l.06,1.11,1-.4a22.18,22.18,0,0,1,4.31-1.16l.73-.12Zm-38.75-87.2a25.43,25.43,0,0,1-19.68,24.83,26.05,26.05,0,0,1-11.85,0l-.11,0a25.54,25.54,0,1,1,31.64-24.77ZM275.55,201a25.43,25.43,0,0,1-19.68,24.83,26.19,26.19,0,0,1-11.85,0l-.12,0A25.55,25.55,0,1,1,275.55,201Zm-98.31,39.68a25.42,25.42,0,0,1-19.67,24.83,26.05,26.05,0,0,1-11.85,0l-.12,0a25.54,25.54,0,1,1,31.64-24.77Z"/></svg>
